<svg width="24" height="24" viewBox="0 0 24 24" fill="none" xmlns="http://www.w3.org/2000/svg">
<rect width="24" height="24" rx="4" fill="#E98827"/>
<path d="M11.9145 4.89299C12.351 5.35417 12.7713 5.84449 13.1726 6.36043C13.4456 6.24906 13.7199 6.1425 13.9974 6.04422C15.3691 5.55933 16.7812 5.26233 18.1686 5.17784C18.544 5.15417 18.9172 5.14745 19.2872 5.15417C19.0695 4.92276 18.8423 4.70127 18.6045 4.4926C17.212 3.26969 15.4923 2.44683 13.6482 2.13795C13.5551 2.54605 13.4126 2.9589 13.2072 3.35321C13.0004 3.75137 12.7287 4.12743 12.4057 4.45646C12.2534 4.6126 12.0873 4.75826 11.9145 4.89299Z" fill="white"/>
<path d="M18.2461 6.3252C16.971 6.41868 15.6716 6.70317 14.3955 7.16279C14.2298 7.22263 14.0637 7.28537 13.8978 7.35099C14.5373 8.2798 15.116 9.27868 15.6181 10.3332C16.0019 10.1799 16.4035 10.0615 16.8202 9.99876C17.5314 9.88673 18.2739 9.95396 18.9352 10.1678C19.5996 10.3783 20.1834 10.7099 20.7057 11.0658C21.1714 11.3868 21.5951 11.7277 22 12.0622C22.0048 11.2066 21.8995 10.3361 21.6719 9.4668C21.3688 8.31046 20.876 7.2572 20.2362 6.32871C19.5846 6.27914 18.9195 6.27465 18.2461 6.3252Z" fill="white"/>
<path d="M6.83433 11.1785C7.75958 10.075 8.81002 9.01464 10.0336 8.1047C10.6452 7.65056 11.2901 7.24442 11.9661 6.90453C11.9997 6.88754 12.0333 6.8725 12.0672 6.85586C11.6992 6.38734 11.3154 5.94147 10.9179 5.52029C10.2432 5.86592 9.51187 6.10374 8.77803 6.26792C7.89403 6.4657 7.03246 6.56589 6.2128 6.66992C5.39349 6.77297 4.61161 6.87793 3.89113 7.05844C3.65175 7.11797 3.42034 7.18676 3.19663 7.26454C2.64646 8.28709 2.27134 9.40507 2.10271 10.5697C1.91641 11.8544 1.97852 13.1954 2.32868 14.5333C2.53634 15.3251 2.834 16.0682 3.2053 16.7567C3.57015 16.0378 3.96925 15.3177 4.40485 14.5998C5.10989 13.4397 5.90971 12.2846 6.83433 11.1785Z" fill="white"/>
<path d="M12.192 2.81296C12.3309 2.55948 12.4362 2.29065 12.5165 2.01315C11.5161 1.96162 10.4909 2.06049 9.4674 2.32839C9.34451 2.36069 9.22287 2.39495 9.10255 2.43143C9.77338 2.91378 10.432 3.45274 11.0664 4.04833C11.5452 3.7104 11.9363 3.30133 12.192 2.81296Z" fill="white"/>
<path d="M10.0195 4.62447C9.32716 3.97793 8.6077 3.4009 7.87672 2.89233C6.55584 3.48828 5.41293 4.34888 4.4928 5.39581C4.37374 5.5312 4.2601 5.67042 4.14905 5.81187C5.59313 5.49374 7.08807 5.41631 8.51458 5.09689C9.03982 4.9826 9.549 4.82545 10.0195 4.62447Z" fill="white"/>
<path d="M11.8828 13.6829C12.2167 13.0767 12.6346 12.4971 13.1378 11.9863C13.5628 11.5546 14.0403 11.1823 14.5463 10.8738C14.0343 9.79329 13.4434 8.77652 12.7905 7.83557C12.6951 7.88069 12.5997 7.92549 12.5056 7.97257C11.8988 8.28011 11.3122 8.65011 10.7489 9.0684C9.62197 9.90599 8.62852 10.8991 7.74265 11.9431C6.85705 12.9897 6.07806 14.0919 5.38418 15.2029C4.83433 16.0849 4.33858 16.9734 3.89467 17.8561C4.33471 18.4648 4.83882 19.0182 5.39633 19.5076C6.66435 20.6213 8.20383 21.4042 9.86139 21.7687C9.92155 21.512 9.97502 21.248 10.0243 20.9785C10.1264 20.4213 10.2121 19.8417 10.304 19.2483C10.4887 18.0615 10.6897 16.8107 11.092 15.5494C11.2933 14.9202 11.5481 14.2894 11.8828 13.6829Z" fill="white"/>
<path d="M15.0363 11.9799C14.6606 12.2231 14.3101 12.5064 13.9929 12.828C13.1489 13.6803 12.593 14.773 12.2214 15.9156C11.8466 17.0617 11.6379 18.2548 11.4395 19.4313C11.3403 20.0205 11.2443 20.6078 11.1272 21.1906C11.0763 21.4431 11.0212 21.6951 10.9595 21.9456C12.1244 22.0679 13.3301 21.9866 14.5335 21.6717C15.4283 21.4374 16.2611 21.0892 17.0222 20.6475C16.9492 19.7603 16.8436 18.8517 16.6919 17.9258C16.3722 15.9767 15.8505 13.9543 15.0363 11.9799Z" fill="white"/>
<path d="M18.5867 11.2867C18.0733 11.1279 17.5391 11.0857 17.0017 11.1721C16.7012 11.2194 16.401 11.3068 16.1037 11.4243C16.9809 13.5341 17.5205 15.6886 17.8281 17.7475C17.9392 18.4914 18.0208 19.223 18.0784 19.9402C18.6001 19.5401 19.0789 19.093 19.5077 18.6043C20.779 17.157 21.6191 15.3567 21.8982 13.4303C21.8989 13.4274 21.8989 13.4246 21.8995 13.422C21.2863 12.9381 20.6958 12.4401 20.0627 12.0199C19.5929 11.7082 19.1013 11.4432 18.5867 11.2867Z" fill="white"/>
</svg>
