<svg width="24" height="24" viewBox="0 0 24 24" fill="none" xmlns="http://www.w3.org/2000/svg">
<rect width="24" height="24" rx="4" fill="#E98827"/>
<path d="M11.923 5.60378C12.3159 6.01883 12.6941 6.46011 13.0553 6.92446C13.3011 6.82423 13.5479 6.72832 13.7976 6.63987C15.0322 6.20347 16.303 5.93618 17.5517 5.86014C17.8895 5.83883 18.2254 5.83279 18.5584 5.83883C18.3625 5.63057 18.158 5.43123 17.944 5.24343C16.6907 4.14283 15.1431 3.40226 13.4834 3.12428C13.3995 3.49156 13.2714 3.86313 13.0864 4.21799C12.9004 4.57634 12.6558 4.91479 12.3652 5.21091C12.2281 5.35143 12.0786 5.48253 11.923 5.60378Z" fill="white"/>
<path d="M17.6214 6.89275C16.4738 6.97688 15.3044 7.23292 14.156 7.64657C14.0068 7.70043 13.8573 7.75689 13.708 7.81595C14.2835 8.65186 14.8043 9.55084 15.2563 10.4999C15.6017 10.3619 15.9631 10.2554 16.3381 10.1989C16.9782 10.0981 17.6464 10.1586 18.2416 10.351C18.8395 10.5405 19.3649 10.8389 19.835 11.1592C20.2541 11.4481 20.6355 11.7549 20.9999 12.0559C21.0042 11.286 20.9094 10.5025 20.7046 9.72015C20.4318 8.67946 19.9883 7.73154 19.4125 6.89591C18.826 6.8513 18.2274 6.84726 17.6214 6.89275Z" fill="white"/>
<path d="M7.35098 11.2607C8.18369 10.2675 9.12907 9.31321 10.2303 8.49428C10.7807 8.08556 11.3611 7.72004 11.9695 7.41415C11.9997 7.39885 12.03 7.38532 12.0605 7.37034C11.7293 6.94868 11.3839 6.5474 11.0261 6.16835C10.4189 6.47941 9.76073 6.69344 9.10028 6.8412C8.3047 7.0192 7.52929 7.10938 6.79161 7.203C6.05424 7.29574 5.35056 7.3902 4.70213 7.55266C4.4867 7.60624 4.27843 7.66815 4.07709 7.73814C3.58195 8.65843 3.24435 9.6646 3.09258 10.7128C2.92492 11.869 2.98082 13.0759 3.29596 14.2799C3.48285 14.9925 3.75074 15.6614 4.0849 16.2809C4.41326 15.634 4.77245 14.9859 5.16447 14.3398C5.79901 13.2957 6.51883 12.2561 7.35098 11.2607Z" fill="white"/>
<path d="M12.1728 3.73179C12.2978 3.50366 12.3926 3.26172 12.4649 3.01197C11.5645 2.9656 10.6419 3.05458 9.72069 3.29568C9.61009 3.32475 9.50062 3.35559 9.39233 3.38842C9.99607 3.82253 10.5888 4.30758 11.1598 4.84361C11.5907 4.53947 11.9426 4.17132 12.1728 3.73179Z" fill="white"/>
<path d="M10.2176 5.36212C9.59448 4.78025 8.94698 4.26092 8.2891 3.80322C7.10033 4.33957 6.07173 5.11409 5.24362 6.05631C5.13647 6.17816 5.0342 6.30346 4.93425 6.43076C6.2339 6.14445 7.57933 6.07477 8.86317 5.7873C9.33588 5.68443 9.79414 5.543 10.2176 5.36212Z" fill="white"/>
<path d="M11.8945 13.5146C12.195 12.969 12.5711 12.4474 13.024 11.9877C13.4065 11.5991 13.8362 11.2641 14.2917 10.9864C13.8308 10.014 13.2991 9.09891 12.7114 8.25207C12.6256 8.29267 12.5398 8.333 12.4551 8.37536C11.9089 8.65215 11.381 8.98514 10.874 9.3616C9.8598 10.1154 8.96571 11.0092 8.16844 11.9488C7.37141 12.8907 6.67033 13.8827 6.04585 14.8825C5.55099 15.6764 5.10482 16.4759 4.70531 17.2704C5.10134 17.8182 5.55503 18.3163 6.05678 18.7567C7.19799 19.7591 8.58349 20.4636 10.0753 20.7917C10.1294 20.5607 10.1775 20.3231 10.2219 20.0805C10.3138 19.579 10.3909 19.0574 10.4736 18.5233C10.6398 17.4553 10.8207 16.3296 11.1828 15.1944C11.364 14.6282 11.5932 14.0604 11.8945 13.5146Z" fill="white"/>
<path d="M14.7326 11.9819C14.3945 12.2008 14.079 12.4557 13.7936 12.7452C13.034 13.5123 12.5337 14.4957 12.1993 15.5239C11.862 16.5554 11.6742 17.6292 11.4956 18.6881C11.4063 19.2184 11.3199 19.7469 11.2144 20.2714C11.1687 20.4987 11.1191 20.7254 11.0635 20.9509C12.112 21.061 13.197 20.9878 14.2801 20.7044C15.0855 20.4935 15.835 20.1801 16.5199 19.7827C16.4542 18.9842 16.3592 18.1665 16.2227 17.3331C15.9349 15.579 15.4654 13.7588 14.7326 11.9819Z" fill="white"/>
<path d="M17.9279 11.358C17.4659 11.2151 16.9851 11.1771 16.5015 11.2549C16.231 11.2975 15.9609 11.3761 15.6933 11.4819C16.4828 13.3806 16.9684 15.3197 17.2452 17.1727C17.3452 17.8421 17.4186 18.5006 17.4705 19.1461C17.94 18.786 18.3709 18.3836 18.7569 17.9438C19.901 16.6412 20.6571 15.021 20.9083 13.2873C20.9088 13.2847 20.9089 13.2821 20.9094 13.2798C20.3576 12.8443 19.8261 12.3961 19.2564 12.0179C18.8335 11.7373 18.3911 11.4988 17.9279 11.358Z" fill="white"/>
</svg>
