<svg width="24" height="24" viewBox="0 0 24 24" fill="none" xmlns="http://www.w3.org/2000/svg">
<rect width="24" height="24" fill="#F7931A"/>
<path fill-rule="evenodd" clip-rule="evenodd" d="M14.9436 6.53266C16.9239 7.27183 18.3563 8.30128 18.0521 10.143C17.8216 11.4833 17.0443 12.1093 15.9863 12.2959C17.4061 13.0702 18.0982 14.1818 17.3938 16.0473C16.5177 18.3874 14.4972 18.5148 11.8123 17.9364L11.1518 20.4178L9.59076 20.0016L10.2512 17.5203C10.0813 17.4721 9.90226 17.4269 9.71872 17.3803C9.47343 17.3182 9.21999 17.2542 8.96901 17.1784L8.30864 19.6598L6.75041 19.2443L7.41083 16.763L4.30612 15.8669L5.05478 14.1248C5.05478 14.1248 6.22671 14.4658 6.20837 14.4468C6.64289 14.5608 6.8516 14.297 6.93617 14.1097L7.99376 10.1317L8.76422 7.30527C8.79535 6.99747 8.68319 6.5881 8.04814 6.40643C8.09097 6.38553 6.90518 6.1017 6.90518 6.1017L7.3465 4.43891L10.5455 5.29182L11.1925 2.86131L12.8041 3.29099L12.1572 5.72151C12.4705 5.79649 12.7766 5.8811 13.0862 5.96663C13.1879 5.99473 13.2899 6.0229 13.3926 6.05087L14.0394 3.62036L15.6075 4.03843L14.9436 6.53266ZM10.7245 10.3013L10.8028 10.3258C11.7404 10.62 14.5208 11.4924 14.9682 9.84017C15.3845 8.26925 12.9775 7.67859 11.8592 7.40416C11.7271 7.37175 11.613 7.34374 11.5236 7.31905L10.7245 10.3013ZM9.55243 15.2069C9.50313 15.1916 9.4578 15.1775 9.4166 15.1648L10.2157 12.1826C10.3146 12.2101 10.4395 12.2419 10.584 12.2788C11.9025 12.615 14.8475 13.3661 14.4095 14.9449C13.9857 16.5858 10.7077 15.5662 9.55243 15.2069Z" fill="white"/>
</svg>
