<svg width="24" height="24" viewBox="0 0 24 24" fill="none" xmlns="http://www.w3.org/2000/svg">
<rect width="24" height="24" rx="4" fill="#FF5F25"/>
<path d="M17.0015 18.1538C17.0098 18.1538 17.0181 18.1621 17.0181 18.1621C17.0015 18.1538 16.9849 18.1372 16.9766 18.1289C16.8937 18.0626 16.8024 17.9879 16.7111 17.9215C16.678 17.8966 16.6531 17.88 16.6199 17.8551C16.4954 17.7722 16.3627 17.6892 16.2216 17.6062C16.2216 17.6062 16.2216 17.6062 16.2133 17.6062C15.9064 17.4403 15.5662 17.291 15.1928 17.1582C14.7033 16.9923 14.164 16.8595 13.5916 16.7683V19.3486C13.5916 19.8879 13.1518 20.3193 12.6208 20.3193C12.3387 20.3193 12.0898 20.1948 11.9156 20.004C11.7414 20.1948 11.4842 20.3193 11.2021 20.3193C10.6628 20.3193 10.2314 19.8879 10.2314 19.3486V16.7683C7.78381 17.1416 6 18.3032 6 19.6804C6 21.3564 8.64667 22.7171 11.9156 22.7171C15.1845 22.7171 17.8312 21.3564 17.8312 19.6804C17.8312 19.1328 17.5242 18.6101 17.0015 18.1538Z" fill="white"/>
<path d="M13.5417 10.3466L15.1098 8.77017L12.9112 2H10.7706L8.68811 8.76187L10.2562 10.3466H13.5417ZM11.9653 7.85752C12.5544 7.85752 13.0356 8.33874 13.0356 8.92781C13.0356 9.52518 12.5544 9.99809 11.9653 9.99809C11.3763 9.99809 10.8951 9.52518 10.8951 8.92781C10.8951 8.33874 11.3763 7.85752 11.9653 7.85752Z" fill="white"/>
<path d="M17.6984 18.3861L15.3836 9.78237L13.2513 11.981V16.3866L13.6413 16.4447C15.533 16.7268 16.9932 17.4486 17.6984 18.3861Z" fill="white"/>
<path d="M10.5632 16.3866V19.3652C10.5632 19.7053 10.837 19.9791 11.1771 19.9874C11.5007 19.9708 11.7579 19.7053 11.7579 19.3817L11.7496 16.3036C11.3431 16.3119 10.9448 16.3368 10.5632 16.3866Z" fill="white"/>
<path d="M10.5383 16.3866V11.9644L8.42267 9.79067L6.2738 18.2036C7.02881 17.3573 8.40608 16.7102 10.1733 16.4447L10.5383 16.3866Z" fill="white"/>
<path d="M12.0317 16.2871V14.4286H11.7579V16.2871C11.8326 16.2871 11.899 16.2871 11.9737 16.2871C11.9902 16.2871 12.0151 16.2871 12.0317 16.2871Z" fill="white"/>
<path d="M12.0317 19.3817C12.04 19.7136 12.3138 19.9874 12.6457 19.9874C12.9859 19.9874 13.2514 19.7136 13.2514 19.3817L13.2431 16.37C12.8531 16.3202 12.4466 16.2953 12.0234 16.2953L12.0317 19.3817Z" fill="white"/>
<path d="M7.92482 9.27627L8.42263 9.79067L8.68812 8.76187L8.57197 8.63742C8.57197 8.63742 8.57197 8.63742 8.57197 8.62913C8.39774 8.45489 8.10735 8.45489 7.93312 8.62913C7.75059 8.81165 7.75059 9.10204 7.92482 9.27627Z" fill="white"/>
<path d="M15.8732 9.28457C16.0557 9.10204 16.0557 8.81995 15.8732 8.64572C15.6989 8.47149 15.4085 8.47149 15.2343 8.64572L15.1099 8.77017L15.3837 9.79067L15.8732 9.28457Z" fill="white"/>
</svg>
