<svg width="24" height="24" viewBox="0 0 24 24" fill="none" xmlns="http://www.w3.org/2000/svg">
<rect width="24" height="24" fill="#779556"/>
<path d="M12 8.08461C13.6801 8.08461 15.0425 6.72262 15.0425 5.04253C15.0425 3.36245 13.68 2 12 2C10.3199 2 8.95789 3.36245 8.95789 5.04253C8.95789 6.72262 10.3198 8.08461 12 8.08461Z" fill="white"/>
<path d="M6.61361 18.2841H17.3868C17.3868 18.2841 18 18.1425 18 17.4333C18 16.3696 16.0887 15.6751 15.5904 15.2972C13.2691 13.5358 13.4291 9.80928 16.2698 9.80928V8.68817H7.73061V9.80928C10.5709 9.80928 10.7309 13.5358 8.40954 15.2972C7.91126 15.6751 5.99994 16.3696 5.99994 17.4333C5.99998 18.1425 6.61361 18.2841 6.61361 18.2841Z" fill="white"/>
<path d="M6.61362 19.0315L6.02667 20.0203V21.3009H17.9733V20.0203L17.3868 19.0315H6.61362Z" fill="white"/>
</svg>
