<svg width="24" height="24" viewBox="0 0 24 24" fill="none" xmlns="http://www.w3.org/2000/svg">
<rect width="24" height="24" rx="4" fill="#D91111"/>
<path d="M5.3844 11.917C5.32861 11.917 5.21701 11.917 5.16121 11.8612C5.04962 11.8054 4.93803 11.6938 4.88223 11.5264L4.10107 9.40614C3.93368 9.01556 3.98948 8.56918 4.15687 8.1786C4.32426 7.78802 4.65904 7.45324 5.10542 7.28585L16.6554 3.10107C17.1018 2.93368 17.5482 2.98948 17.9387 3.15687C18.3293 3.32426 18.6083 3.65904 18.7757 4.10542L19.5569 6.2257C19.6126 6.3373 19.6126 6.50469 19.5569 6.67208C19.4453 6.78367 19.3337 6.83947 19.2221 6.89527L5.55179 11.8612C5.496 11.917 5.4402 11.917 5.3844 11.917Z" fill="white"/>
<path d="M20.4496 14.1489V11.917C20.4496 11.5822 20.2264 11.359 19.8916 11.359H5.38436C5.04957 11.359 4.82639 11.5822 4.82639 11.917V14.1489H20.4496Z" fill="white"/>
<path d="M4.82639 15.2648V19.1706C4.82639 20.1192 5.55175 20.8445 6.5003 20.8445H18.7756C19.7242 20.8445 20.4496 20.1192 20.4496 19.1706V15.2648H4.82639Z" fill="white"/>
</svg>
