<svg width="24" height="24" viewBox="0 0 24 24" fill="none" xmlns="http://www.w3.org/2000/svg">
<rect width="24" height="24" rx="4" fill="#D91111"/>
<path d="M4.55272 12.0012C4.49014 12.0012 4.36498 12.0012 4.3024 11.9386C4.17724 11.876 4.05207 11.7508 3.98949 11.5631L3.11336 9.18502C2.92562 8.74695 2.9882 8.2463 3.17594 7.80824C3.36368 7.37017 3.73917 6.99468 4.23982 6.80694L17.1941 2.11336C17.6947 1.92562 18.1954 1.9882 18.6335 2.17594C19.0715 2.36368 19.3844 2.73917 19.5722 3.23982L20.4483 5.6179C20.5109 5.74306 20.5109 5.9308 20.4483 6.11855C20.3232 6.24371 20.198 6.30629 20.0728 6.36887L4.74047 11.9386C4.67789 12.0012 4.6153 12.0012 4.55272 12.0012Z" fill="white"/>
<path d="M21.4496 14.5044V12.0012C21.4496 11.6257 21.1993 11.3754 20.8238 11.3754H4.55269C4.1772 11.3754 3.92688 11.6257 3.92688 12.0012V14.5044H21.4496Z" fill="white"/>
<path d="M3.92688 15.756V20.1367C3.92688 21.2006 4.74043 22.0141 5.80431 22.0141H19.5721C20.636 22.0141 21.4496 21.2006 21.4496 20.1367V15.756H3.92688Z" fill="white"/>
</svg>
