<svg width="24" height="24" viewBox="0 0 24 24" fill="none" xmlns="http://www.w3.org/2000/svg">
<rect width="24" height="24" fill="#85BB65"/>
<path d="M18.1342 6.19603L16.9373 6.97817L13.4697 4.13755L12.8291 4.91914L9.35055 3L2 16.2027L8.63046 19.894L9.35273 21L9.82734 20.6903L9.86109 20.7186L9.94817 20.6125L22.2871 12.562L18.1342 6.19603ZM2.74023 15.9915L9.56227 3.7375L12.4796 5.34586L3.89356 15.8309L6.95516 18.3374L2.74023 15.9915ZM4.65991 15.7542L5.36639 14.891L7.38677 17.9868L4.65991 15.7542ZM15.1657 15.7776C13.9612 16.5614 12.3485 16.2234 11.5636 15.02C10.7787 13.8149 11.1173 12.2038 12.3223 11.4184C13.5252 10.6325 15.1379 10.9721 15.9233 12.175C16.7087 13.3795 16.3696 14.9922 15.1657 15.7776ZM6.00701 14.1105L13.547 4.9039L16.4611 7.2895L6.00701 14.1105ZM13.2939 12.5424L13.7816 13.2902L13.8964 13.2227C14.2856 12.9969 14.5833 12.8967 14.7863 12.9212C14.9893 12.9457 15.1869 13.103 15.3785 13.3985C15.5848 13.7142 15.6593 13.982 15.5973 14.2035C15.538 14.4229 15.3295 14.6515 14.9714 14.8839L14.8685 14.9541L15.0873 15.2888L14.746 15.5109L14.5283 15.1762L14.4303 15.2366C14.0755 15.4684 13.7848 15.5697 13.5595 15.543C13.3363 15.5158 13.1257 15.3503 12.9281 15.0488L12.8634 14.9465L13.3684 14.6177L13.4022 14.6705C13.5236 14.8539 13.6297 14.9541 13.7233 14.9688C13.8169 14.9846 13.9655 14.9247 14.1696 14.7924L14.2453 14.7462L13.7168 13.9357C13.3195 14.1954 13.0098 14.314 12.7899 14.2944C12.5689 14.2759 12.355 14.1056 12.1482 13.7899C11.949 13.4845 11.8864 13.2255 11.9577 13.0175C12.0301 12.8096 12.2641 12.5756 12.6603 12.3176L12.4704 12.0264L12.8106 11.8043L13.0016 12.0944C13.3793 11.849 13.6738 11.7325 13.885 11.7504C14.0945 11.7673 14.2943 11.923 14.4859 12.2174L14.5299 12.2844L14.0423 12.6033L14.0058 12.5522C13.8605 12.3301 13.6509 12.3089 13.3733 12.4896L13.2939 12.5424ZM12.9515 12.7617L12.8802 12.8118C12.5792 13.0072 12.5068 13.2233 12.6636 13.46C12.8253 13.7077 13.056 13.7344 13.3543 13.5395C13.3565 13.5384 13.3831 13.5237 13.431 13.4954L12.9515 12.7617ZM14.5855 14.5225L14.66 14.4757C14.985 14.2629 15.0563 14.019 14.8745 13.7387C14.7749 13.5874 14.6736 13.5112 14.5686 13.509C14.4652 13.5079 14.2986 13.5814 14.0711 13.7295L14.5855 14.5225Z" fill="white"/>
</svg>
