<svg width="24" height="24" viewBox="0 0 24 24" fill="none" xmlns="http://www.w3.org/2000/svg">
<rect width="24" height="24" fill="#278E2A"/>
<circle cx="12.0033" cy="12.0681" r="7.77266" fill="white"/>
<path d="M19.4521 17.2499C20.4885 15.7601 21.0714 14.0113 21.0714 12.0681C21.0714 10.3193 20.5533 8.69995 19.7112 7.33973C19.7112 7.27496 19.6464 7.27496 19.6464 7.21019C18.0271 4.68408 15.2419 3 12.0033 3C8.76472 3 5.91475 4.68408 4.36022 7.27496C4.36022 7.33974 4.29544 7.33973 4.29544 7.40451C3.45341 8.76472 3 10.384 3 12.1329C3 14.076 3.58295 15.8249 4.6193 17.3146L4.68408 17.3794C6.23861 19.6464 8.95904 21.1362 12.0033 21.1362C15.0476 21.1362 17.7033 19.6464 19.3874 17.3794C19.3874 17.3146 19.3874 17.3146 19.4521 17.2499ZM18.4805 16.2783L16.1487 16.6022L15.2419 15.6953L16.5374 11.9386L18.5453 10.967L19.8408 11.7442C19.8408 11.8738 19.8408 12.0033 19.8408 12.1976C19.776 13.6226 19.3226 15.1124 18.4805 16.2783ZM18.4158 7.72837L17.8976 9.67153L15.8249 10.7079L12.6511 8.50563V5.97952L14.8533 4.87839C16.3431 5.46134 17.5737 6.43292 18.4158 7.72837ZM9.08858 4.87839L11.3556 5.97952V8.50563L8.18177 10.7727L6.04429 9.7363L5.52611 7.72837C6.43292 6.43292 7.66359 5.46134 9.08858 4.87839ZM4.23067 11.6147L5.52611 10.8374L7.53405 11.8738L8.82949 15.6306L7.92268 16.5374L5.52611 16.2783C4.68408 15.0476 4.23067 13.6226 4.23067 12.0681C4.23067 11.9386 4.23067 11.7442 4.23067 11.6147ZM9.99539 19.5817L8.89427 17.3794L9.67153 16.6022H14.3351L15.1124 17.3794L14.0113 19.5817C13.3635 19.776 12.7158 19.8408 12.0033 19.8408C11.2908 19.8408 10.6431 19.7112 9.99539 19.5817Z" fill="black"/>
</svg>
