<svg width="24" height="24" viewBox="0 0 24 24" fill="none" xmlns="http://www.w3.org/2000/svg">
<rect width="24" height="24" rx="4" fill="#278E2A"/>
<circle cx="11.9286" cy="12" r="8.57143" fill="white"/>
<path d="M20.1429 17.7143C21.2857 16.0714 21.9286 14.1429 21.9286 12C21.9286 10.0714 21.3571 8.28571 20.4286 6.78571C20.4286 6.71429 20.3571 6.71429 20.3571 6.64286C18.5714 3.85714 15.5 2 11.9286 2C8.35714 2 5.21429 3.85714 3.5 6.71429C3.5 6.78571 3.42857 6.78571 3.42857 6.85714C2.5 8.35714 2 10.1429 2 12.0714C2 14.2143 2.64286 16.1429 3.78571 17.7857L3.85714 17.8571C5.57143 20.3571 8.57143 22 11.9286 22C15.2857 22 18.2143 20.3571 20.0714 17.8571C20.0714 17.7857 20.0714 17.7857 20.1429 17.7143ZM19.0714 16.6429L16.5 17L15.5 16L16.9286 11.8571L19.1429 10.7857L20.5714 11.6429C20.5714 11.7857 20.5714 11.9286 20.5714 12.1429C20.5 13.7143 20 15.3571 19.0714 16.6429ZM19 7.21429L18.4286 9.35714L16.1429 10.5L12.6429 8.07143V5.28571L15.0714 4.07143C16.7143 4.71429 18.0714 5.78571 19 7.21429ZM8.71429 4.07143L11.2143 5.28571V8.07143L7.71429 10.5714L5.35714 9.42857L4.78571 7.21429C5.78571 5.78571 7.14286 4.71429 8.71429 4.07143ZM3.35714 11.5L4.78571 10.6429L7 11.7857L8.42857 15.9286L7.42857 16.9286L4.78571 16.6429C3.85714 15.2857 3.35714 13.7143 3.35714 12C3.35714 11.8571 3.35714 11.6429 3.35714 11.5ZM9.71428 20.2857L8.5 17.8571L9.35714 17H14.5L15.3571 17.8571L14.1429 20.2857C13.4286 20.5 12.7143 20.5714 11.9286 20.5714C11.1429 20.5714 10.4286 20.4286 9.71428 20.2857Z" fill="black"/>
</svg>
