<svg width="24" height="24" viewBox="0 0 24 24" fill="none" xmlns="http://www.w3.org/2000/svg">
<rect width="24" height="24" rx="4" fill="#D660E8"/>
<path d="M22.9688 15.4316C22.3803 7.57529 19.3302 3.91371 16.1718 3.91371C13.7947 3.91371 13.0297 5.60986 12 5.60986C10.9703 5.60986 10.2029 3.91371 7.82824 3.91371C4.66982 3.91371 1.61969 7.57533 1.03119 15.4316C0.806677 17.9186 1.81455 19.5021 3.43898 19.9803C5.08133 20.464 7.08815 19.2694 8.74257 16.8663C9.47953 15.7953 10.7306 14.3544 12 14.3544C13.2694 14.3544 14.5205 15.7953 15.2575 16.8663C16.912 19.2694 18.9187 20.464 20.561 19.9803C22.1859 19.5021 23.1933 17.9186 22.9688 15.4316ZM9.53762 11.8461H7.94279V13.4409H6.19362V11.8461H4.59884V10.0969H6.19362V8.50213H7.94279V10.0969H9.53762V11.8461ZM14.8322 12.076C14.3224 12.076 13.9097 11.6636 13.9097 11.1539C13.9097 10.6445 14.3224 10.2317 14.8322 10.2317C15.3416 10.2317 15.7548 10.6445 15.7548 11.1539C15.7548 11.6636 15.3416 12.076 14.8322 12.076ZM17.0604 14.3049C16.5514 14.3049 16.1386 13.8922 16.1386 13.3824C16.1386 12.873 16.5514 12.4603 17.0604 12.4603C17.5702 12.4603 17.9829 12.873 17.9829 13.3824C17.9829 13.8922 17.5701 14.3049 17.0604 14.3049ZM17.0604 9.84743C16.5514 9.84743 16.1386 9.43433 16.1386 8.92494C16.1386 8.41516 16.5514 8.00244 17.0604 8.00244C17.5702 8.00244 17.9829 8.4152 17.9829 8.92494C17.9829 9.43433 17.5701 9.84743 17.0604 9.84743ZM19.2893 12.076C18.7799 12.076 18.3668 11.6636 18.3668 11.1539C18.3668 10.6445 18.7799 10.2317 19.2893 10.2317C19.7991 10.2317 20.2118 10.6445 20.2118 11.1539C20.2118 11.6636 19.7991 12.076 19.2893 12.076Z" fill="white"/>
</svg>
