<svg width="24" height="24" viewBox="0 0 24 24" fill="none" xmlns="http://www.w3.org/2000/svg">
<rect width="24" height="24" rx="4" fill="#D660E8"/>
<path d="M21.9717 15.4709C21.4367 8.32871 18.6639 5 15.7925 5C13.6316 5 12.9361 6.54195 12 6.54195C11.0639 6.54195 10.3663 5 8.2075 5C5.33621 5 2.56336 8.32875 2.02836 15.4709C1.82425 17.7317 2.7405 19.1713 4.21726 19.606C5.71031 20.0457 7.53468 18.9597 9.03871 16.7751C9.70867 15.8014 10.846 14.4915 12 14.4915C13.154 14.4915 14.2914 15.8014 14.9614 16.7751C16.4654 18.9597 18.2897 20.0457 19.7828 19.606C21.2599 19.1713 22.1758 17.7317 21.9717 15.4709ZM9.76148 12.2112H8.31164V13.6611H6.72148V12.2112H5.27168V10.6211H6.72148V9.17129H8.31164V10.6211H9.76148V12.2112ZM14.5748 12.4202C14.1113 12.4202 13.7361 12.0454 13.7361 11.582C13.7361 11.1189 14.1113 10.7436 14.5748 10.7436C15.0378 10.7436 15.4134 11.1189 15.4134 11.582C15.4134 12.0454 15.0378 12.4202 14.5748 12.4202ZM16.6004 14.4466C16.1376 14.4466 15.7624 14.0713 15.7624 13.6079C15.7624 13.1448 16.1376 12.7696 16.6004 12.7696C17.0638 12.7696 17.439 13.1448 17.439 13.6079C17.439 14.0713 17.0638 14.4466 16.6004 14.4466ZM16.6004 10.3943C16.1376 10.3943 15.7624 10.0187 15.7624 9.55566C15.7624 9.09223 16.1376 8.71703 16.6004 8.71703C17.0638 8.71703 17.439 9.09226 17.439 9.55566C17.439 10.0187 17.0638 10.3943 16.6004 10.3943ZM18.6266 12.4202C18.1636 12.4202 17.788 12.0454 17.788 11.582C17.788 11.1189 18.1636 10.7436 18.6266 10.7436C19.0901 10.7436 19.4653 11.1189 19.4653 11.582C19.4653 12.0454 19.0901 12.4202 18.6266 12.4202Z" fill="white"/>
</svg>
