<svg width="24" height="24" viewBox="0 0 24 24" fill="none" xmlns="http://www.w3.org/2000/svg">
<rect width="24" height="24" rx="4" fill="#FFBE00"/>
<path d="M7 10L2.5 11.5L8.5 20L21.5 8L20 7L7 10Z" fill="#E1E1E1"/>
<path d="M8.55879 14.5598L8.558 14.559L8.55405 14.5567L8.55879 14.5598ZM23.6062 12.07L21.86 7.45032L15.5132 4L2.36073 11.0106L0.437378 16.1493L8.1909 20.2745L8.31828 14.6832L2.28635 11.2393L2.80378 11.513L2.50868 11.3429L3.56252 11.9031L2.60362 11.3429L8.558 14.559L21.379 7.93214L19.3267 9.05878L21.7295 7.83166L16.9737 10.35L8.71861 14.881L8.19011 20.2737L23.6054 12.0684L23.6062 12.07ZM8.81513 12.9466L5.34267 11.0937L8.72019 12.138L19.0609 7.54921L8.81513 12.9466Z" fill="white"/>
</svg>
