<svg width="24" height="24" viewBox="0 0 24 24" fill="none" xmlns="http://www.w3.org/2000/svg">
<rect width="24" height="24" rx="4" fill="#21AAFF"/>
<path d="M6.02986 15.5881C4.30718 15.5881 3.05972 14.8158 3.05972 13.806V12.6179C3.05972 11.6081 4.30718 10.8358 6.02986 10.8358C7.75255 10.8358 9.00001 11.6081 9.00001 12.6179V13.806C9.00001 14.8158 7.75255 15.5881 6.02986 15.5881Z" fill="white"/>
<path d="M15.0019 8.69792L11.4692 16.3901C11.4123 16.561 11.1844 16.675 11.0134 16.675H5.71437C4.63177 16.675 3.66313 17.3587 3.32126 18.3843L3.09334 19.0111C2.9224 19.5239 2.97938 20.0937 3.32126 20.4926C3.60615 21.0054 4.11896 21.2333 4.68875 21.2333H10.5576C11.8111 21.2333 13.0077 20.4926 13.5205 19.353L18.4777 8.69792H15.0019Z" fill="white"/>
<path d="M18.9905 7.55832L20.301 4.76635C20.5289 4.3675 20.4719 3.91166 20.244 3.56979C20.0161 3.22792 19.6173 3 19.2184 3H18.4207C17.9649 3 17.509 3.28489 17.2811 3.74073L15.5148 7.55832H18.9905Z" fill="white"/>
</svg>
