<svg width="24" height="24" viewBox="0 0 24 24" fill="none" xmlns="http://www.w3.org/2000/svg">
<rect width="24" height="24" rx="4" fill="#21AAFF"/>
<path d="M6.02986 15.6358C4.27254 15.6358 3 14.8481 3 13.8179V12.606C3 11.5758 4.27254 10.7881 6.02986 10.7881C7.78718 10.7881 9.05972 11.5758 9.05972 12.606V13.8179C9.05972 14.8481 7.78718 15.6358 6.02986 15.6358Z" fill="white"/>
<path d="M15.7641 8.05973L12.0071 16.2403C11.9465 16.4221 11.7041 16.5433 11.5223 16.5433H5.88674C4.73539 16.5433 3.70524 17.2705 3.34166 18.3612L3.09927 19.0278C2.91748 19.5732 2.97807 20.1792 3.34166 20.6033C3.64464 21.1487 4.19002 21.3911 4.79599 21.3911H11.0375C12.3706 21.3911 13.6432 20.6033 14.1885 19.3914L19.4605 8.05973H15.7641Z" fill="white"/>
<path d="M20.0059 6.84777L21.3996 3.87851C21.642 3.45433 21.5814 2.96955 21.339 2.60597C21.0967 2.24239 20.6725 2 20.2483 2H19.3999C18.9152 2 18.4304 2.30299 18.188 2.78776L16.3095 6.84777H20.0059Z" fill="white"/>
</svg>
