<svg width="24" height="24" viewBox="0 0 24 24" fill="none" xmlns="http://www.w3.org/2000/svg">
<rect width="24" height="24" fill="#2AA6FF"/>
<path d="M3.19159 7.36453L7.36396 3.19215C7.62017 2.93595 8.03508 2.93595 8.29072 3.19215C8.54749 3.44836 8.54749 3.8627 8.29072 4.11947L6.66847 5.74172L8.2448 7.31805L9.73328 5.82901C9.89142 5.67087 10.1062 5.58131 10.3307 5.58131C10.5552 5.58131 10.7694 5.6703 10.9287 5.82901L17.9471 12.848C18.4062 13.3077 18.6267 13.9538 18.5434 14.5977L18.1976 17.2709L20.8078 19.8805C21.0641 20.1373 21.0641 20.5516 20.8078 20.8078C20.6797 20.9365 20.5125 20.9994 20.3448 20.9994C20.177 20.9994 20.0092 20.9359 19.8805 20.8078L17.2301 18.1574L14.5824 18.5292C13.9295 18.621 13.2719 18.3994 12.8066 17.9324L5.82788 10.927C5.49912 10.5971 5.49969 10.0632 5.82901 9.73384L7.31862 8.24424L5.74285 6.66791L4.12061 8.29072C3.99194 8.41938 3.82416 8.48344 3.65638 8.48344C3.48917 8.48344 3.32139 8.41939 3.19272 8.29128C2.93595 8.03508 2.93595 7.62073 3.19159 7.36453ZM16.8237 16.4416C17.0113 16.6292 17.3145 16.6292 17.5016 16.4416C17.6892 16.2546 17.6892 15.9513 17.5016 15.7643C17.3145 15.5772 17.0113 15.5772 16.8237 15.7643C16.6366 15.9519 16.6366 16.2546 16.8237 16.4416ZM14.3217 12.7454L16.2206 14.6442C16.3487 14.7729 16.5164 14.8364 16.6837 14.8364C16.8514 14.8364 17.0192 14.7729 17.1473 14.6442C17.4035 14.388 17.4035 13.9731 17.1473 13.7175L15.2485 11.8186C14.9928 11.5624 14.5773 11.5624 14.3217 11.8186C14.0649 12.0748 14.0649 12.4897 14.3217 12.7454ZM14.0315 10.7864L13.8909 10.6459L13.3111 11.2257C13.2476 11.2898 13.1637 11.3209 13.0798 11.3209C12.9953 11.3209 12.912 11.2892 12.848 11.2257C12.7199 11.0971 12.7199 10.8902 12.848 10.7615L13.4267 10.1822L13.1047 9.86025L12.5249 10.4401C12.4608 10.5042 12.3775 10.5353 12.2936 10.5353C12.2097 10.5353 12.1258 10.5036 12.0618 10.4401C11.9337 10.312 11.9337 10.1045 12.0618 9.97644L12.6411 9.39659L12.3191 9.07463L11.7398 9.65392C11.6758 9.71797 11.5919 9.75028 11.508 9.75028C11.4241 9.75028 11.3402 9.71797 11.2762 9.65392C11.1481 9.52639 11.1481 9.31836 11.2762 9.19083L11.856 8.61097L11.5335 8.28845L10.9548 8.86774C10.8907 8.93179 10.8063 8.9641 10.723 8.9641C10.6385 8.9641 10.5557 8.93179 10.4911 8.86774C10.363 8.73964 10.363 8.53275 10.4911 8.40465L11.0704 7.82592L10.6923 7.44785C10.4923 7.24776 10.1703 7.24776 9.97078 7.44785L9.17213 8.2465L12.8604 11.9348L14.0315 10.7864ZM7.44729 9.97021C7.35149 10.066 7.29765 10.1958 7.29765 10.3313C7.29708 10.4667 7.35149 10.5965 7.44729 10.6923L10.7541 13.9992L11.9252 12.8514L8.24594 9.17212L7.44729 9.97021Z" fill="white"/>
</svg>
