<svg width="24" height="24" viewBox="0 0 24 24" fill="none" xmlns="http://www.w3.org/2000/svg">
<rect width="24" height="24" rx="4" fill="#C20707"/>
<path d="M12.1605 19.9646C11.87 19.8999 11.7515 19.8381 11.5827 19.6636C11.3441 19.4174 11.3082 19.3148 11.3102 18.8843C11.3117 18.4445 11.3935 18.1638 11.6858 17.585L11.8532 17.2534H12.4191C12.9362 17.2547 13.0108 17.2387 13.2831 17.1564C13.7305 17.0093 14.1881 16.6983 14.436 16.3721L14.5456 16.228L14.8458 16.5271C15.1656 16.8459 15.455 17.0271 15.8725 17.1699C16.2065 17.2846 16.9791 17.286 17.4051 17.1699C18.3812 16.9115 19.0689 16.1563 19.3161 15.071C19.3446 14.946 19.4903 13.8206 19.6397 12.5709C19.7891 11.3211 19.916 10.3029 19.9215 10.3083C19.9561 10.3422 20.3722 11.8937 20.51 12.5031C21.1716 15.4281 21.1633 17.4193 20.4847 18.582C20.207 19.0577 19.6645 19.4377 19.0952 19.5548C18.727 19.6312 18.5237 19.6224 18.2049 19.5209C17.3749 19.2554 16.4071 19.2995 14.6429 19.6831C13.2656 19.9828 12.5966 20.0572 12.1604 19.9596L12.1605 19.9646ZM8.02478 16.8236C7.72469 16.7559 7.3894 16.6217 7.15612 16.4749L6.96796 16.3558V12.9132V9.47059L6.59116 9.44559C6.38394 9.43088 6.20938 9.425 6.20329 9.43088C6.1973 9.43088 6.17989 10.9821 6.16475 12.8644L6.1373 16.2868L5.9972 16.3412C5.58833 16.5017 4.63477 16.5159 4.2436 16.3677C3.64213 16.1396 3.2241 15.607 3.0501 14.8472C3.0102 14.6728 3 13.9937 3 11.5234L3.00007 8.41888L3.08407 8.12669C3.27306 7.46893 3.69426 6.81573 4.14481 6.48134C4.64135 6.11297 5.08138 5.98989 5.90118 5.98989H6.39274L6.61512 5.76755C6.73737 5.6455 6.93088 5.47389 7.04503 5.38684C7.87552 4.75378 8.98232 4.58703 10.0721 4.93054L10.4046 5.03494L10.5012 4.91877C10.8145 4.54159 11.2346 4.25896 11.7183 4.09999C11.9875 4.01176 12.0704 4.00147 12.5752 4C13.204 4 13.4326 4.04264 13.8863 4.25234C14.2189 4.4063 14.5126 4.60114 14.8381 4.88407L15.0891 5.10215L15.3783 5.04921C15.7639 4.97715 16.8279 4.96833 17.102 5.0345C17.3967 5.10509 18.0116 5.40522 18.2984 5.61874C18.5545 5.80946 18.8373 6.144 18.9821 6.42766C19.1925 6.83999 19.3374 7.49805 19.3374 8.0414C19.3374 8.2233 19.1644 9.80733 18.9447 11.6364C18.5227 15.149 18.5223 15.1516 18.2498 15.6242C18.0085 16.0427 17.591 16.3404 17.1072 16.4389C16.9947 16.4624 16.7338 16.4742 16.5273 16.4654C16.1938 16.4507 16.1243 16.4374 15.9047 16.3301C15.5845 16.1742 15.2698 15.8663 15.1157 15.5582L14.9969 15.3207V11.7778V8.23492L15.1139 7.99258L15.2309 7.75039L14.9593 7.48599C14.8099 7.34041 14.6702 7.23203 14.6488 7.24512C14.5706 7.29218 14.3499 7.69362 14.2651 7.94273L14.1779 8.1983L14.1589 11.723C14.1419 14.8384 14.1328 15.2653 14.0801 15.3997C13.9151 15.8198 13.6062 16.1477 13.1981 16.336C12.9759 16.4389 12.9024 16.4536 12.5485 16.4654C11.8998 16.4874 11.3763 16.3624 11.0985 16.1155L10.9543 15.9876V12.3212V8.6546H10.5633H10.1722L10.1632 12.5537L10.1542 16.4527L9.87481 16.5895C9.72112 16.6645 9.49479 16.7518 9.37183 16.7836C9.05715 16.8645 8.31325 16.885 8.02556 16.8203L8.02478 16.8236Z" fill="white"/>
</svg>
