<svg width="24" height="24" viewBox="0 0 24 24" fill="none" xmlns="http://www.w3.org/2000/svg">
<rect width="24" height="24" rx="4" fill="#7BED52"/>
<path d="M12 2C6.4808 2 2 6.4808 2 12C2 17.5192 6.4808 22 12 22C17.5092 22 21.9822 17.5352 21.9984 12.0296C21.9994 12.0198 22 12.0099 22 12C22 11.9911 21.9996 11.9822 21.9988 11.9734C21.9844 6.4664 17.5104 2 12 2ZM12 2.6C12.4382 2.6 12.8688 2.6324 13.291 2.6902C13.273 2.7142 13.3222 2.7682 13.4942 2.8668L13.6988 2.9364C13.9548 2.9046 13.8458 2.817 13.6768 2.752C14.2946 2.86296 14.8997 3.03597 15.4828 3.2684C15.3212 3.3048 15.0752 3.3248 14.832 3.3152C14.838 3.7974 15.052 5.0858 15.786 4.852C15.6556 4.8806 16.2004 5.4198 15.9188 5.51C15.7688 6.518 14.9518 4.8378 14.5372 4.8598C13.9172 4.9644 14.6548 5.2708 14.4312 5.421C13.8446 5.925 14.9388 6.4536 14.8504 5.6066C14.9224 6.2894 15.1536 6.2684 15.707 6.2328C14.4428 6.4464 16.411 6.9362 15.7718 7.3454C15.1384 7.287 14.7834 7.5234 15.1414 8.1434C14.9734 8.7174 15.5408 8.7426 15.7354 8.941L15.948 8.9214L16.0856 8.9034C16.0802 8.9028 16.0744 8.904 16.0692 8.9032C16.8586 8.6602 16.4504 7.0804 17.2918 7.1836C17.1156 7.7946 18.088 8.3764 17.5664 7.4902C17.2108 7.041 18.7198 7.8134 18.055 8.0342C18.7016 8.8878 18.2458 7.237 18.7274 7.6856C19.0404 8.2308 19.407 7.825 19.4922 7.8046C19.6994 7.7468 20.012 7.8378 20.0942 7.8864C20.8872 8.6436 19.343 8.3296 19.3202 8.9086C19.4042 9.2792 18.4722 8.8096 18.3328 8.7086C17.9242 7.6072 16.9934 8.7058 16.3088 8.8828C16.2856 8.901 15.7232 9.3398 15.657 9.398C15.4966 10.363 14.721 10.9496 14.4332 11.9258C14.3754 12.4898 14.5624 13.27 14.484 13.8786C14.6664 14.659 15.4048 15.1058 16.0484 15.4878C16.5328 15.7998 17.0378 15.2022 17.559 15.1954C18.015 14.5246 18.745 15.0164 19.1574 14.9668C18.6824 15.7148 19.5106 16.2928 19.2762 17.102C18.9088 17.5516 18.8054 18.149 18.6086 18.6856C16.9112 20.3636 14.578 21.4 12 21.4C10.7506 21.4015 9.51357 21.1535 8.3614 20.6704C8.5736 20.4774 8.6974 20.1898 8.9828 20.1074C10.279 20.4208 9.7148 18.817 10.5948 18.4542C11.1846 17.3734 9.302 17.2014 8.63 16.8078C7.4936 16.6362 7.6004 15.253 6.5684 14.9538C5.7232 14.8192 6.0298 13.6012 5.4102 13.6664C4.8754 13.7658 4.6632 13.0298 4.3652 13.0824C4.2932 13.1584 3.992 12.5884 3.668 13.2164C2.753 13.0138 3.3932 11.9632 3.0066 11.375C2.8464 11.1056 3.4638 9.7242 2.8024 10.527C2.7764 10.481 2.7588 10.4184 2.748 10.345C2.83233 9.86858 2.95356 9.39943 3.1106 8.9418C3.208 8.8336 3.32 8.7798 3.4434 8.8204C3.9324 8.7092 3.7698 9.4774 3.8102 9.9532C4.1788 10.1112 4.0062 8.5584 4.7722 8.5222C5.2936 7.9352 5.8982 7.4354 6.5322 7.0312C6.7794 7.2076 7.3114 7.1862 7.7286 6.7946C7.2638 6.7012 7.2304 6.3466 7.8516 6.207C8.84 5.7822 7.4056 6.6726 8.2126 6.801C9.0886 7.059 8.3458 6.0394 8.761 5.6406C8.3262 5.3446 9.024 4.1938 8.2636 4.705C8.5266 4.517 8.1176 4.1642 8.3524 4.0266C8.4494 4.2986 8.9384 4.6722 9.1122 4.045C9.6008 4.1284 9.5322 3.4206 9.7962 3.0398C11.0352 2.6032 10.0094 3.8044 9.9628 4.4004C10.3616 5.5624 11.0342 3.9524 11.7428 3.9124C12.6044 3.9418 12.506 3.1182 12.4926 2.6774C12.3065 2.64269 12.1187 2.61733 11.93 2.6014C11.9534 2.6014 11.9766 2.6 12 2.6ZM8.6758 3.5934C8.8344 3.574 8.5842 3.9182 8.2422 3.975C7.7862 4.3552 8.1748 3.8414 8.3692 3.7578C8.5246 3.6466 8.623 3.5998 8.6758 3.5934ZM15.6698 3.845C15.6836 3.8438 15.7052 3.8476 15.7378 3.8586C15.8846 4.1018 15.5748 3.8526 15.6698 3.845ZM7.6192 3.9594C7.9698 3.9848 7.5962 4.803 7.2066 4.8434C6.9978 4.824 6.8552 5.1534 6.6938 5.261C6.6778 5.333 6.7066 4.1338 7.2518 4.0876C7.4188 3.9896 7.5382 3.9536 7.6192 3.9594ZM12.6668 3.9814C12.488 3.9888 12.3552 4.0642 12.4282 4.2586C12.5326 4.3592 12.6848 4.3836 12.8234 4.3844C13.6774 4.2784 13.0602 3.965 12.6668 3.9814ZM15.6918 4.1374C15.7298 4.141 15.8184 4.1746 15.9832 4.2578C16.316 4.6778 15.5278 4.1224 15.6918 4.1374ZM14.0472 4.4458C14.0364 4.4504 14.0274 4.4706 14.0242 4.5148C14.1808 4.6908 14.0942 4.425 14.0472 4.4458ZM14.652 4.591C14.6392 4.5876 14.638 4.6154 14.6636 4.703C14.8318 4.8946 14.69 4.6014 14.652 4.591ZM16.364 4.593C16.5016 4.5924 16.8866 4.8318 16.809 5.093C16.4372 5.3934 16.6094 5.233 16.5368 4.9C16.2878 4.6798 16.2816 4.5934 16.364 4.593ZM5.5242 5.8078C5.5514 5.811 5.5902 5.8436 5.6434 5.9238C5.5106 6.3314 5.4066 5.794 5.5242 5.8078ZM7.3812 6.0442C7.406 6.0444 7.4464 6.0642 7.5058 6.1202C7.376 6.2182 7.3072 6.0432 7.3812 6.0442ZM18.7592 6.1162C18.7946 6.112 18.8642 6.1616 18.9804 6.2958C19.1192 6.0678 19.8356 6.597 19.214 6.6926C19.0968 7.1602 18.6066 6.1338 18.7594 6.116L18.7592 6.1162ZM5.5386 6.304C5.5516 6.301 5.5654 6.309 5.5792 6.3328C5.3928 6.8822 5.4476 6.3242 5.5386 6.304ZM17.6356 6.8684C17.642 6.86719 17.6486 6.86732 17.655 6.8688C17.767 6.8874 18.2084 7.1384 18.3844 7.3132C18.4922 7.5544 18.031 7.1248 17.9376 7.1528C17.6764 6.958 17.6044 6.8778 17.6356 6.8684ZM5.3086 6.873C5.3314 6.8776 5.3492 6.901 5.3542 6.955C5.0168 7.1896 5.2098 6.853 5.3086 6.873ZM18.984 7.32C19.0012 7.3126 19.0508 7.3404 19.1532 7.4368C19.1712 7.6812 18.9322 7.342 18.984 7.32ZM16.9292 7.7828C16.8878 7.7894 16.8242 7.8616 16.7374 8.0532C16.9794 8.3356 17.0534 7.7632 16.9292 7.7828ZM19.4766 7.9844C19.4314 7.9904 19.384 8.041 19.3524 8.1718C19.7284 8.3512 19.6122 7.9668 19.4766 7.9844ZM12.1686 8.5404C12.12 8.536 12.052 8.5564 11.9692 8.625C12.288 8.7898 12.315 8.5532 12.1688 8.5402L12.1686 8.5404ZM12.6098 8.6906C12.5898 8.6832 12.5502 8.697 12.4828 8.7536C12.5522 8.9272 12.6694 8.713 12.6098 8.6906ZM14.1978 9.7062C14.1784 9.7108 14.1532 9.7322 14.1208 9.7808C14.2436 9.984 14.281 9.6862 14.1978 9.7062ZM4.1644 9.7918C4.1462 9.792 4.1352 9.8374 4.146 9.9676C4.3412 10.2 4.2192 9.7912 4.1644 9.7918ZM4.0558 10.1218C4.0376 10.1188 4.0102 10.173 3.9738 10.3344C4.0838 10.6546 4.1108 10.1312 4.0558 10.1218ZM3.4972 10.2906C3.109 10.2506 3.8234 10.936 3.8516 11.2382C4.5706 11.4322 3.751 11.6518 4.359 11.8968C5.2744 12.2264 4.7086 11.4902 4.3204 11.3352C4.4726 11.0906 3.9342 10.9102 3.7364 10.3554C3.6306 10.3168 3.5528 10.2964 3.4972 10.2906ZM14.8378 10.4438C14.7966 10.4438 14.7512 10.5198 14.732 10.7464C15.0004 10.811 14.9286 10.4438 14.8378 10.4438ZM4.2528 10.607C4.25027 10.6062 4.24761 10.606 4.24498 10.6064C4.24236 10.6067 4.23985 10.6076 4.2376 10.609C4.2166 10.6224 4.2152 10.6876 4.2736 10.8296L4.3188 10.8596C4.3562 10.727 4.2926 10.6172 4.2528 10.607ZM14.154 10.6238C14.0364 10.6306 13.9606 10.6838 14.044 10.823L14.0792 10.8394H14.279C14.8724 10.8198 14.4124 10.609 14.154 10.6238ZM3.696 11.3528C3.6434 11.3416 3.636 11.4026 3.762 11.6152C4.1468 11.749 3.812 11.3772 3.696 11.3528ZM2.6222 11.3828C2.7556 11.9606 2.8406 12.6324 3.0882 13.1402C3.2518 13.7618 3.3724 12.9794 3.4132 13.4692C3.552 14.3944 2.988 15.3476 3.682 16.2348C4.012 17.1294 4.7368 17.7562 5.244 18.5352C3.608 16.844 2.6 14.5412 2.6 12C2.6 11.7924 2.609 11.587 2.6222 11.3828ZM5.0152 11.9164C4.9672 11.9224 4.9244 11.9736 4.9128 12.1058C5.3536 12.286 5.1594 11.8982 5.0152 11.9164ZM5.7172 12.6454C5.6978 12.6376 5.6776 12.7252 5.6644 12.9882L5.6724 13.1332C5.8284 13.55 5.7756 12.6684 5.7172 12.6454ZM12.7324 13.2324C12.6826 13.227 12.682 13.2658 12.8204 13.3972C13.1898 13.4704 12.842 13.2444 12.7324 13.2324ZM13.2696 13.3554C13.2466 13.3558 13.2166 13.3724 13.179 13.4156C13.3322 13.6564 13.369 13.3536 13.2696 13.3554ZM13.1804 13.6188C13.1452 13.6244 13.0958 13.6478 13.029 13.6984C13.2128 13.8968 13.333 13.594 13.1804 13.6188ZM12.9224 13.6574C12.9036 13.6554 12.8752 13.683 12.8364 13.7664C12.9464 13.9356 12.9784 13.6634 12.9224 13.6574ZM18.7664 15.52C18.7476 15.518 18.7192 15.5454 18.6804 15.629C18.7904 15.7982 18.8226 15.5258 18.7664 15.52Z" fill="white"/>
</svg>
