<svg width="24" height="24" viewBox="0 0 24 24" fill="none" xmlns="http://www.w3.org/2000/svg">
<rect width="24" height="24" fill="#67D93E"/>
<path d="M12 4C7.58464 4 4 7.58464 4 12C4 16.4154 7.58464 20 12 20C16.4074 20 19.9858 16.4282 19.9987 12.0237C19.9995 12.0158 20 12.0079 20 12C20 11.9929 19.9997 11.9858 19.999 11.9787C19.9875 7.57312 16.4083 4 12 4ZM12 4.48C12.3506 4.48 12.695 4.50592 13.0328 4.55216C13.0184 4.57136 13.0578 4.61456 13.1954 4.69344L13.359 4.74912C13.5638 4.72368 13.4766 4.6536 13.3414 4.6016C13.8357 4.69037 14.3198 4.82878 14.7862 5.01472C14.657 5.04384 14.4602 5.05984 14.2656 5.05216C14.2704 5.43792 14.4416 6.46864 15.0288 6.2816C14.9245 6.30448 15.3603 6.73584 15.135 6.808C15.015 7.6144 14.3614 6.27024 14.0298 6.28784C13.5338 6.37152 14.1238 6.61664 13.945 6.7368C13.4757 7.14 14.351 7.56288 14.2803 6.88528C14.3379 7.43152 14.5229 7.41472 14.9656 7.38624C13.9542 7.55712 15.5288 7.94896 15.0174 8.27632C14.5107 8.2296 14.2267 8.41872 14.5131 8.91472C14.3787 9.37392 14.8326 9.39408 14.9883 9.5528L15.1584 9.53712L15.2685 9.52272C15.2642 9.52224 15.2595 9.5232 15.2554 9.52256C15.8869 9.32816 15.5603 8.06432 16.2334 8.14688C16.0925 8.63568 16.8704 9.10112 16.4531 8.39216C16.1686 8.0328 17.3758 8.65072 16.844 8.82736C17.3613 9.51024 16.9966 8.1896 17.3819 8.54848C17.6323 8.98464 17.9256 8.66 17.9938 8.64368C18.1595 8.59744 18.4096 8.67024 18.4754 8.70912C19.1098 9.31488 17.8744 9.06368 17.8562 9.52688C17.9234 9.82336 17.1778 9.44768 17.0662 9.36688C16.7394 8.48576 15.9947 9.36464 15.447 9.50624C15.4285 9.5208 14.9786 9.87184 14.9256 9.9184C14.7973 10.6904 14.1768 11.1597 13.9466 11.9406C13.9003 12.3918 14.0499 13.016 13.9872 13.5029C14.1331 14.1272 14.7238 14.4846 15.2387 14.7902C15.6262 15.0398 16.0302 14.5618 16.4472 14.5563C16.812 14.0197 17.396 14.4131 17.7259 14.3734C17.3459 14.9718 18.0085 15.4342 17.821 16.0816C17.527 16.4413 17.4443 16.9192 17.2869 17.3485C15.929 18.6909 14.0624 19.52 12 19.52C11.0005 19.5212 10.0109 19.3228 9.08912 18.9363C9.25888 18.7819 9.35792 18.5518 9.58624 18.4859C10.6232 18.7366 10.1718 17.4536 10.8758 17.1634C11.3477 16.2987 9.8416 16.1611 9.304 15.8462C8.39488 15.709 8.48032 14.6024 7.65472 14.363C6.97856 14.2554 7.22384 13.281 6.72816 13.3331C6.30032 13.4126 6.13056 12.8238 5.89216 12.8659C5.83456 12.9267 5.5936 12.4707 5.3344 12.9731C4.6024 12.811 5.11456 11.9706 4.80528 11.5C4.67712 11.2845 5.17104 10.1794 4.64192 10.8216C4.62112 10.7848 4.60704 10.7347 4.5984 10.676C4.66586 10.2949 4.76285 9.91955 4.88848 9.55344C4.9664 9.46688 5.056 9.42384 5.15472 9.45632C5.54592 9.36736 5.41584 9.98192 5.44816 10.3626C5.74304 10.489 5.60496 9.24672 6.21776 9.21776C6.63488 8.74816 7.11856 8.34832 7.62576 8.02496C7.82352 8.16608 8.24912 8.14896 8.58288 7.83568C8.21104 7.76096 8.18432 7.47728 8.68128 7.3656C9.472 7.02576 8.32448 7.73808 8.97008 7.8408C9.67088 8.0472 9.07664 7.23152 9.4088 6.91248C9.06096 6.67568 9.6192 5.75504 9.01088 6.164C9.22128 6.0136 8.89408 5.73136 9.08192 5.62128C9.15952 5.83888 9.55072 6.13776 9.68976 5.636C10.0806 5.70272 10.0258 5.13648 10.237 4.83184C11.2282 4.48256 10.4075 5.44352 10.3702 5.92032C10.6893 6.84992 11.2274 5.56192 11.7942 5.52992C12.4835 5.55344 12.4048 4.89456 12.3941 4.54192C12.2452 4.51415 12.0949 4.49386 11.944 4.48112C11.9627 4.48112 11.9813 4.48 12 4.48ZM9.34064 5.27472C9.46752 5.2592 9.26736 5.53456 8.99376 5.58C8.62896 5.88416 8.93984 5.47312 9.09536 5.40624C9.21968 5.31728 9.2984 5.27984 9.34064 5.27472ZM14.9358 5.476C14.9469 5.47504 14.9642 5.47808 14.9902 5.48688C15.1077 5.68144 14.8598 5.48208 14.9358 5.476ZM8.49536 5.56752C8.77584 5.58784 8.47696 6.2424 8.16528 6.27472C7.99824 6.2592 7.88416 6.52272 7.75504 6.6088C7.74224 6.6664 7.76528 5.70704 8.20144 5.67008C8.33504 5.59168 8.43056 5.56288 8.49536 5.56752ZM12.5334 5.58512C12.3904 5.59104 12.2842 5.65136 12.3426 5.80688C12.4261 5.88736 12.5478 5.90688 12.6587 5.90752C13.3419 5.82272 12.8482 5.572 12.5334 5.58512ZM14.9534 5.70992C14.9838 5.7128 15.0547 5.73968 15.1866 5.80624C15.4528 6.14224 14.8222 5.69792 14.9534 5.70992ZM13.6378 5.95664C13.6291 5.96032 13.6219 5.97648 13.6194 6.01184C13.7446 6.15264 13.6754 5.94 13.6378 5.95664ZM14.1216 6.0728C14.1114 6.07008 14.1104 6.09232 14.1309 6.1624C14.2654 6.31568 14.152 6.08112 14.1216 6.0728ZM15.4912 6.0744C15.6013 6.07392 15.9093 6.26544 15.8472 6.4744C15.5498 6.71472 15.6875 6.5864 15.6294 6.32C15.4302 6.14384 15.4253 6.07472 15.4912 6.0744ZM6.81936 7.04624C6.84112 7.0488 6.87216 7.07488 6.91472 7.13904C6.80848 7.46512 6.72528 7.0352 6.81936 7.04624ZM8.30496 7.23536C8.3248 7.23552 8.35712 7.25136 8.40464 7.29616C8.3008 7.37456 8.24576 7.23456 8.30496 7.23536ZM17.4074 7.29296C17.4357 7.2896 17.4914 7.32928 17.5843 7.43664C17.6954 7.25424 18.2685 7.6776 17.7712 7.75408C17.6774 8.12816 17.2853 7.30704 17.4075 7.2928L17.4074 7.29296ZM6.83088 7.4432C6.84128 7.4408 6.85232 7.4472 6.86336 7.46624C6.71424 7.90576 6.75808 7.45936 6.83088 7.4432ZM16.5085 7.89472C16.5136 7.89375 16.5189 7.89386 16.524 7.89504C16.6136 7.90992 16.9667 8.11072 17.1075 8.25056C17.1938 8.44352 16.8248 8.09984 16.7501 8.12224C16.5411 7.9664 16.4835 7.90224 16.5085 7.89472ZM6.64688 7.8984C6.66512 7.90208 6.67936 7.9208 6.68336 7.964C6.41344 8.15168 6.56784 7.8824 6.64688 7.8984ZM17.5872 8.256C17.601 8.25008 17.6406 8.27232 17.7226 8.34944C17.737 8.54496 17.5458 8.2736 17.5872 8.256ZM15.9434 8.62624C15.9102 8.63152 15.8594 8.68928 15.7899 8.84256C15.9835 9.06848 16.0427 8.61056 15.9434 8.62624ZM17.9813 8.78752C17.9451 8.79232 17.9072 8.8328 17.8819 8.93744C18.1827 9.08096 18.0898 8.77344 17.9813 8.78752ZM12.1349 9.23232C12.096 9.2288 12.0416 9.24512 11.9754 9.3C12.2304 9.43184 12.252 9.24256 12.135 9.23216L12.1349 9.23232ZM12.4878 9.35248C12.4718 9.34656 12.4402 9.3576 12.3862 9.40288C12.4418 9.54176 12.5355 9.3704 12.4878 9.35248ZM13.7582 10.165C13.7427 10.1686 13.7226 10.1858 13.6966 10.2246C13.7949 10.3872 13.8248 10.149 13.7582 10.165ZM5.73152 10.2334C5.71696 10.2336 5.70816 10.2699 5.7168 10.3741C5.87296 10.56 5.77536 10.233 5.73152 10.2334ZM5.64464 10.4974C5.63008 10.495 5.60816 10.5384 5.57904 10.6675C5.66704 10.9237 5.68864 10.505 5.64464 10.4974ZM5.19776 10.6325C4.8872 10.6005 5.45872 11.1488 5.48128 11.3906C6.05648 11.5458 5.4008 11.7214 5.8872 11.9174C6.61952 12.1811 6.16688 11.5922 5.85632 11.4682C5.97808 11.2725 5.54736 11.1282 5.38912 10.6843C5.30448 10.6534 5.24224 10.6371 5.19776 10.6325ZM14.2702 10.755C14.2373 10.755 14.201 10.8158 14.1856 10.9971C14.4003 11.0488 14.3429 10.755 14.2702 10.755ZM5.80224 10.8856C5.80022 10.885 5.79808 10.8848 5.79599 10.8851C5.79389 10.8854 5.79188 10.8861 5.79008 10.8872C5.77328 10.8979 5.77216 10.9501 5.81888 11.0637L5.85504 11.0877C5.88496 10.9816 5.83408 10.8938 5.80224 10.8856ZM13.7232 10.899C13.6291 10.9045 13.5685 10.947 13.6352 11.0584L13.6634 11.0715H13.8232C14.2979 11.0558 13.9299 10.8872 13.7232 10.899ZM5.3568 11.4822C5.31472 11.4733 5.3088 11.5221 5.4096 11.6922C5.71744 11.7992 5.4496 11.5018 5.3568 11.4822ZM4.49776 11.5062C4.60448 11.9685 4.67248 12.5059 4.87056 12.9122C5.00144 13.4094 5.09792 12.7835 5.13056 13.1754C5.2416 13.9155 4.7904 14.6781 5.3456 15.3878C5.6096 16.1035 6.18944 16.605 6.5952 17.2282C5.2864 15.8752 4.48 14.033 4.48 12C4.48 11.8339 4.4872 11.6696 4.49776 11.5062ZM6.41216 11.9331C6.37376 11.9379 6.33952 11.9789 6.33024 12.0846C6.68288 12.2288 6.52752 11.9186 6.41216 11.9331ZM6.97376 12.5163C6.95824 12.5101 6.94208 12.5802 6.93152 12.7906L6.93792 12.9066C7.06272 13.24 7.02048 12.5347 6.97376 12.5163ZM12.5859 12.9859C12.5461 12.9816 12.5456 13.0126 12.6563 13.1178C12.9518 13.1763 12.6736 12.9955 12.5859 12.9859ZM13.0157 13.0843C12.9973 13.0846 12.9733 13.0979 12.9432 13.1325C13.0658 13.3251 13.0952 13.0829 13.0157 13.0843ZM12.9443 13.295C12.9162 13.2995 12.8766 13.3182 12.8232 13.3587C12.9702 13.5174 13.0664 13.2752 12.9443 13.295ZM12.7379 13.3259C12.7229 13.3243 12.7002 13.3464 12.6691 13.4131C12.7571 13.5485 12.7827 13.3307 12.7379 13.3259ZM17.4131 14.816C17.3981 14.8144 17.3754 14.8363 17.3443 14.9032C17.4323 15.0386 17.4581 14.8206 17.4131 14.816Z" fill="white"/>
</svg>
