<svg width="24" height="24" viewBox="0 0 24 24" fill="none" xmlns="http://www.w3.org/2000/svg">
<rect width="24" height="24" rx="4" fill="#7BED52"/>
<path d="M12 3C7.03272 3 3 7.03272 3 12C3 16.9673 7.03272 21 12 21C16.9583 21 20.984 16.9817 20.9986 12.0266C20.9995 12.0178 21 12.0089 21 12C21 11.992 20.9996 11.984 20.9989 11.9761C20.986 7.01976 16.9594 3 12 3ZM12 3.54C12.3944 3.54 12.7819 3.56916 13.1619 3.62118C13.1457 3.64278 13.19 3.69138 13.3448 3.78012L13.5289 3.84276C13.7593 3.81414 13.6612 3.7353 13.5091 3.6768C14.0652 3.77667 14.6097 3.93237 15.1345 4.14156C14.9891 4.17432 14.7677 4.19232 14.5488 4.18368C14.5542 4.61766 14.7468 5.77722 15.4074 5.5668C15.29 5.59254 15.7804 6.07782 15.5269 6.159C15.3919 7.0662 14.6566 5.55402 14.2835 5.57382C13.7255 5.66796 14.3893 5.94372 14.1881 6.0789C13.6601 6.5325 14.6449 7.00824 14.5654 6.24594C14.6302 6.86046 14.8382 6.84156 15.3363 6.80952C14.1985 7.00176 15.9699 7.44258 15.3946 7.81086C14.8246 7.7583 14.5051 7.97106 14.8273 8.52906C14.6761 9.04566 15.1867 9.06834 15.3619 9.2469L15.5532 9.22926L15.677 9.21306C15.6722 9.21252 15.667 9.2136 15.6623 9.21288C16.3727 8.99418 16.0054 7.57236 16.7626 7.66524C16.604 8.21514 17.4792 8.73876 17.0098 7.94118C16.6897 7.5369 18.0478 8.23206 17.4495 8.43078C18.0314 9.19902 17.6212 7.7133 18.0547 8.11704C18.3364 8.60772 18.6663 8.2425 18.743 8.22414C18.9295 8.17212 19.2108 8.25402 19.2848 8.29776C19.9985 8.97924 18.6087 8.69664 18.5882 9.21774C18.6638 9.55128 17.825 9.12864 17.6995 9.03774C17.3318 8.04648 16.4941 9.03522 15.8779 9.19452C15.857 9.2109 15.3509 9.60582 15.2913 9.6582C15.1469 10.5267 14.4489 11.0546 14.1899 11.9332C14.1379 12.4408 14.3062 13.143 14.2356 13.6907C14.3998 14.3931 15.0643 14.7952 15.6436 15.139C16.0795 15.4198 16.534 14.882 17.0031 14.8759C17.4135 14.2721 18.0705 14.7148 18.4417 14.6701C18.0142 15.3433 18.7595 15.8635 18.5486 16.5918C18.2179 16.9964 18.1249 17.5341 17.9477 18.017C16.4201 19.5272 14.3202 20.46 12 20.46C10.8756 20.4614 9.76222 20.2381 8.72526 19.8034C8.91624 19.6297 9.02766 19.3708 9.28452 19.2967C10.4511 19.5787 9.94332 18.1353 10.7353 17.8088C11.2661 16.8361 9.5718 16.6813 8.967 16.327C7.94424 16.1726 8.04036 14.9277 7.11156 14.6584C6.35088 14.5373 6.62682 13.4411 6.06918 13.4998C5.58786 13.5892 5.39688 12.9268 5.12868 12.9742C5.06388 13.0426 4.7928 12.5296 4.5012 13.0948C3.6777 12.9124 4.25388 11.9669 3.90594 11.4375C3.76176 11.195 4.31742 9.95178 3.72216 10.6743C3.69876 10.6329 3.68292 10.5766 3.6732 10.5105C3.7491 10.0817 3.8582 9.65949 3.99954 9.24762C4.0872 9.15024 4.188 9.10182 4.29906 9.13836C4.73916 9.03828 4.59282 9.72966 4.62918 10.1579C4.96092 10.3001 4.80558 8.90256 5.49498 8.86998C5.96424 8.34168 6.50838 7.89186 7.07898 7.52808C7.30146 7.68684 7.78026 7.66758 8.15574 7.31514C7.73742 7.23108 7.70736 6.91194 8.26644 6.7863C9.156 6.40398 7.86504 7.20534 8.59134 7.3209C9.37974 7.5531 8.71122 6.63546 9.0849 6.27654C8.69358 6.01014 9.3216 4.97442 8.63724 5.4345C8.87394 5.2653 8.50584 4.94778 8.71716 4.82394C8.80446 5.06874 9.24456 5.40498 9.40098 4.8405C9.84072 4.91556 9.77898 4.27854 10.0166 3.93582C11.1317 3.54288 10.2085 4.62396 10.1665 5.16036C10.5254 6.20616 11.1308 4.75716 11.7685 4.72116C12.544 4.74762 12.4554 4.00638 12.4433 3.60966C12.2758 3.57842 12.1068 3.55559 11.937 3.54126C11.9581 3.54126 11.9789 3.54 12 3.54ZM9.00822 4.43406C9.15096 4.4166 8.92578 4.72638 8.61798 4.7775C8.20758 5.11968 8.55732 4.65726 8.73228 4.58202C8.87214 4.48194 8.9607 4.43982 9.00822 4.43406ZM15.3028 4.6605C15.3152 4.65942 15.3347 4.66284 15.364 4.67274C15.4961 4.89162 15.2173 4.66734 15.3028 4.6605ZM8.05728 4.76346C8.37282 4.78632 8.03658 5.5227 7.68594 5.55906C7.49802 5.5416 7.36968 5.83806 7.22442 5.9349C7.21002 5.9997 7.23594 4.92042 7.72662 4.87884C7.87692 4.79064 7.98438 4.75824 8.05728 4.76346ZM12.6001 4.78326C12.4392 4.78992 12.3197 4.85778 12.3854 5.03274C12.4793 5.12328 12.6163 5.14524 12.7411 5.14596C13.5097 5.05056 12.9542 4.7685 12.6001 4.78326ZM15.3226 4.92366C15.3568 4.9269 15.4366 4.95714 15.5849 5.03202C15.8844 5.41002 15.175 4.91016 15.3226 4.92366ZM13.8425 5.20122C13.8328 5.20536 13.8247 5.22354 13.8218 5.26332C13.9627 5.42172 13.8848 5.1825 13.8425 5.20122ZM14.3868 5.3319C14.3753 5.32884 14.3742 5.35386 14.3972 5.4327C14.5486 5.60514 14.421 5.34126 14.3868 5.3319ZM15.9276 5.3337C16.0514 5.33316 16.3979 5.54862 16.3281 5.7837C15.9935 6.05406 16.1485 5.9097 16.0831 5.61C15.859 5.41182 15.8534 5.33406 15.9276 5.3337ZM6.17178 6.42702C6.19626 6.4299 6.23118 6.45924 6.27906 6.53142C6.15954 6.89826 6.06594 6.4146 6.17178 6.42702ZM7.84308 6.63978C7.8654 6.63996 7.90176 6.65778 7.95522 6.70818C7.8384 6.79638 7.77648 6.63888 7.84308 6.63978ZM18.0833 6.70458C18.1151 6.7008 18.1778 6.74544 18.2824 6.86622C18.4073 6.66102 19.052 7.1373 18.4926 7.22334C18.3871 7.64418 17.9459 6.72042 18.0835 6.7044L18.0833 6.70458ZM6.18474 6.8736C6.19644 6.8709 6.20886 6.8781 6.22128 6.89952C6.05352 7.39398 6.10284 6.89178 6.18474 6.8736ZM17.072 7.38156C17.0778 7.38047 17.0838 7.38059 17.0895 7.38192C17.1903 7.39866 17.5876 7.62456 17.746 7.78188C17.843 7.99896 17.4279 7.61232 17.3438 7.63752C17.1088 7.4622 17.044 7.39002 17.072 7.38156ZM5.97774 7.3857C5.99826 7.38984 6.01428 7.4109 6.01878 7.4595C5.71512 7.67064 5.88882 7.3677 5.97774 7.3857ZM18.2856 7.788C18.3011 7.78134 18.3457 7.80636 18.4379 7.89312C18.4541 8.11308 18.239 7.8078 18.2856 7.788ZM16.4363 8.20452C16.399 8.21046 16.3418 8.27544 16.2637 8.44788C16.4815 8.70204 16.5481 8.18688 16.4363 8.20452ZM18.7289 8.38596C18.6883 8.39136 18.6456 8.4369 18.6172 8.55462C18.9556 8.71608 18.851 8.37012 18.7289 8.38596ZM12.1517 8.88636C12.108 8.8824 12.0468 8.90076 11.9723 8.9625C12.2592 9.11082 12.2835 8.89788 12.1519 8.88618L12.1517 8.88636ZM12.5488 9.02154C12.5308 9.01488 12.4952 9.0273 12.4345 9.07824C12.497 9.23448 12.6025 9.0417 12.5488 9.02154ZM13.978 9.93558C13.9606 9.93972 13.9379 9.95898 13.9087 10.0027C14.0192 10.1856 14.0529 9.91758 13.978 9.93558ZM4.94796 10.0126C4.93158 10.0128 4.92168 10.0537 4.9314 10.1708C5.10708 10.38 4.99728 10.0121 4.94796 10.0126ZM4.85022 10.3096C4.83384 10.3069 4.80918 10.3557 4.77642 10.501C4.87542 10.7891 4.89972 10.3181 4.85022 10.3096ZM4.34748 10.4615C3.9981 10.4255 4.64106 11.0424 4.66644 11.3144C5.31354 11.489 4.5759 11.6866 5.1231 11.9071C5.94696 12.2038 5.43774 11.5412 5.08836 11.4017C5.22534 11.1815 4.74078 11.0192 4.56276 10.5199C4.46754 10.4851 4.39752 10.4668 4.34748 10.4615ZM14.554 10.5994C14.5169 10.5994 14.4761 10.6678 14.4588 10.8718C14.7004 10.9299 14.6357 10.5994 14.554 10.5994ZM5.02752 10.7463C5.02524 10.7456 5.02285 10.7454 5.02049 10.7457C5.01813 10.746 5.01586 10.7468 5.01384 10.7481C4.99494 10.7602 4.99368 10.8188 5.04624 10.9466L5.08692 10.9736C5.12058 10.8543 5.06334 10.7555 5.02752 10.7463ZM13.9386 10.7614C13.8328 10.7675 13.7645 10.8154 13.8396 10.9407L13.8713 10.9555H14.0511C14.5852 10.9378 14.1712 10.7481 13.9386 10.7614ZM4.5264 11.4175C4.47906 11.4074 4.4724 11.4623 4.5858 11.6537C4.93212 11.7741 4.6308 11.4395 4.5264 11.4175ZM3.55998 11.4445C3.68004 11.9645 3.75654 12.5692 3.97938 13.0262C4.12662 13.5856 4.23516 12.8815 4.27188 13.3223C4.3968 14.155 3.8892 15.0128 4.5138 15.8113C4.8108 16.6165 5.46312 17.1806 5.9196 17.8817C4.4472 16.3596 3.54 14.2871 3.54 12C3.54 11.8132 3.5481 11.6283 3.55998 11.4445ZM5.71368 11.9248C5.67048 11.9302 5.63196 11.9762 5.62152 12.0952C6.01824 12.2574 5.84346 11.9084 5.71368 11.9248ZM6.34548 12.5809C6.32802 12.5738 6.30984 12.6527 6.29796 12.8894L6.30516 13.0199C6.44556 13.395 6.39804 12.6016 6.34548 12.5809ZM12.6592 13.1092C12.6143 13.1043 12.6138 13.1392 12.7384 13.2575C13.0708 13.3234 12.7578 13.12 12.6592 13.1092ZM13.1426 13.2199C13.1219 13.2202 13.0949 13.2352 13.0611 13.274C13.199 13.4908 13.2321 13.2182 13.1426 13.2199ZM13.0624 13.4569C13.0307 13.462 12.9862 13.483 12.9261 13.5286C13.0915 13.7071 13.1997 13.4346 13.0624 13.4569ZM12.8302 13.4917C12.8132 13.4899 12.7877 13.5147 12.7528 13.5898C12.8518 13.742 12.8806 13.4971 12.8302 13.4917ZM18.0898 15.168C18.0728 15.1662 18.0473 15.1909 18.0124 15.2661C18.1114 15.4184 18.1403 15.1732 18.0898 15.168Z" fill="white"/>
</svg>
