<svg width="24" height="24" viewBox="0 0 24 24" fill="none" xmlns="http://www.w3.org/2000/svg">
<g clip-path="url(#clip0_2011_2)">
<rect width="24" height="24" rx="4" fill="black"/>
<mask id="mask0_2011_2" style="mask-type:luminance" maskUnits="userSpaceOnUse" x="-4" y="-4" width="32" height="32">
<path d="M27.8793 -3.90512H-3.90881V27.883H27.8793V-3.90512Z" fill="white"/>
<path fill-rule="evenodd" clip-rule="evenodd" d="M-3.90881 12.0342V27.9734H12.0456H28V12.0342V-3.90512H12.0456H-3.90881V12.0342ZM15.4569 5.66448C17.401 6.78641 18.9858 7.71231 18.9798 7.72738C18.9738 7.73945 18.4243 8.06517 17.7572 8.45121L16.5436 9.15091L16.4531 9.09662C15.8372 8.73773 11.8886 6.46672 11.8705 6.4637C11.8554 6.46069 10.7385 7.09705 9.38603 7.87517L6.92872 9.28965L6.93777 12.1488L6.94381 15.0109L9.37395 16.4133C10.7113 17.1854 11.8192 17.8218 11.8373 17.8278C11.8554 17.8368 12.9694 17.2095 14.3127 16.4344C15.6561 15.6593 16.7761 15.023 16.8002 15.023C16.8425 15.0199 21.7632 17.8399 21.745 17.8549C21.6756 17.9092 19.3058 19.2573 19.2757 19.2573C19.2545 19.2573 18.6991 18.9467 18.0379 18.5637C17.3768 18.1837 16.8214 17.87 16.8063 17.87C16.7912 17.87 15.6803 18.5034 14.3369 19.2785C12.9935 20.0505 11.8796 20.6839 11.8615 20.6839C11.8433 20.6839 10.1679 19.7278 8.14228 18.5607L4.45631 16.4374L4.45329 12.1518V7.8631L8.1453 5.73384C10.1739 4.56366 11.8554 3.6076 11.8796 3.61363C11.9037 3.61967 13.5158 4.54255 15.4569 5.66448ZM19.2757 12.0221V15.8523L19.1036 15.7558C19.007 15.7015 18.4545 15.3819 17.8719 15.0471L16.8153 14.4379L16.8093 12.013L16.8002 9.59124L18.0168 8.89154C18.684 8.5055 19.2394 8.19184 19.2545 8.18882C19.2666 8.18882 19.2757 9.91395 19.2757 12.0221ZM12.9905 9.94411C13.5792 10.2849 14.0591 10.5744 14.0561 10.5895C14.0561 10.6046 13.558 10.9032 12.9482 11.256L11.8373 11.8954L11.7166 11.823C11.6471 11.7808 11.149 11.4943 10.6056 11.1837C10.0622 10.87 9.61848 10.6106 9.61848 10.6016C9.61546 10.5684 11.8373 9.30473 11.8796 9.31679C11.9037 9.32282 12.4048 9.6033 12.9905 9.94411ZM14.3248 12.3026V13.5813L13.2229 14.2177C12.6162 14.5676 12.112 14.8541 12.106 14.8541C12.0969 14.8541 12.0909 14.281 12.0909 13.5783V12.3026L13.2018 11.6632C13.8116 11.3133 14.3127 11.0238 14.3188 11.0238C14.3218 11.0238 14.3248 11.5999 14.3248 12.3026ZM10.5302 11.6873L11.6049 12.3056L11.6079 13.5813V14.8571L11.4811 14.7817C11.4086 14.7425 10.9166 14.456 10.3853 14.1483L9.41924 13.5934L9.41018 12.3207C9.40716 11.6149 9.41622 11.054 9.42829 11.06C9.44339 11.063 9.93847 11.3465 10.5302 11.6873Z" fill="black"/>
</mask>
<g mask="url(#mask0_2011_2)">
<path d="M27.8793 -3.90512H-3.90881V27.883H27.8793V-3.90512Z" fill="url(#paint0_linear_2011_2)"/>
</g>
</g>
<defs>
<linearGradient id="paint0_linear_2011_2" x1="1.5" y1="24.4768" x2="19.4807" y2="3.97928" gradientUnits="userSpaceOnUse">
<stop stop-color="#60A5FA"/>
<stop offset="1" stop-color="#22D3EE"/>
</linearGradient>
<clipPath id="clip0_2011_2">
<rect width="24" height="24" rx="4" fill="white"/>
</clipPath>
</defs>
</svg>
