<svg width="100" height="100" viewBox="0 0 100 100" fill="none" xmlns="http://www.w3.org/2000/svg">
<path d="M72 50C72 35.6406 60.3594 24 46 24C31.6406 24 20 35.6406 20 50C20 64.3594 31.6406 76 46 76V80C29.4315 80 16 66.5685 16 50C16 33.4315 29.4315 20 46 20C62.5685 20 76 33.4315 76 50C76 66.5685 62.5685 80 46 80V76C60.3594 76 72 64.3594 72 50Z" fill="#28D2D1"/>
<path d="M78 50C78 32.3269 63.6731 18 46 18C28.3269 18 14 32.3269 14 50C14 67.6731 28.3269 82 46 82V86C26.1177 86 10 69.8823 10 50C10 30.1177 26.1177 14 46 14C65.8823 14 82 30.1177 82 50C82 69.8823 65.8823 86 46 86V82C63.6731 82 78 67.6731 78 50Z" fill="#28D2D1" fill-opacity="0.6"/>
<path d="M84 50C84 29.0132 66.9868 12 46 12C25.0132 12 8 29.0132 8 50C8 70.9868 25.0132 88 46 88V92C22.804 92 4 73.196 4 50C4 26.804 22.804 8 46 8C69.196 8 88 26.804 88 50C88 73.196 69.196 92 46 92V88C66.9868 88 84 70.9868 84 50Z" fill="#28D2D1" fill-opacity="0.2"/>
<path d="M67 79.8284L69.8284 77L82.5563 89.7279L79.7279 92.5564L67 79.8284Z" fill="#28D2D1"/>
<path d="M74 79.8284L76.8284 77L89.5563 89.7279L86.7279 92.5564L74 79.8284Z" fill="#28D2D1" fill-opacity="0.6"/>
<path d="M81 79.8284L83.8284 77L96.5563 89.7279L93.7279 92.5564L81 79.8284Z" fill="#28D2D1" fill-opacity="0.2"/>
</svg>
