<svg width="24" height="24" viewBox="0 0 24 24" fill="none" xmlns="http://www.w3.org/2000/svg">
<rect width="24" height="24" fill="#1242FF"/>
<path d="M20.7988 7.52987L16.0524 3.16441C15.8013 2.93346 15.4111 2.94752 15.1773 3.19591L15.0308 3.3516C14.7932 3.60408 14.8075 4.00212 15.0627 4.23681L15.1649 4.33067L3.73765 16.4704C3.23677 17.0024 2.97548 17.6977 3.00181 18.4279C3.02815 19.1581 3.33882 19.8328 3.87661 20.3274L4.45302 20.8577C4.95532 21.3196 5.60744 21.5739 6.28945 21.5739C7.03481 21.5739 7.75516 21.2628 8.26574 20.7203L19.7359 8.53492L19.8091 8.60227C20.0602 8.83322 20.4504 8.81917 20.6842 8.57077L20.8307 8.41508C21.0684 8.1626 21.054 7.76457 20.7988 7.52987ZM13.9982 13.3323L9.79711 11.3311L15.6577 5.10502L18.9191 8.10468L13.9982 13.3323Z" fill="white"/>
</svg>
