<svg width="24" height="24" viewBox="0 0 24 24" fill="none" xmlns="http://www.w3.org/2000/svg">
<rect width="24" height="24" rx="4" fill="#1242FF"/>
<path d="M21.7764 6.71435L16.5027 1.86383C16.2237 1.60722 15.7901 1.62284 15.5304 1.89883L15.3675 2.07182C15.1035 2.35236 15.1194 2.79462 15.403 3.05538L15.5165 3.15967L2.81961 16.6483C2.26308 17.2394 1.97275 18.0119 2.00201 18.8233C2.03127 19.6347 2.37646 20.3842 2.97402 20.9339L3.61447 21.523C4.17258 22.0362 4.89716 22.3189 5.65495 22.3189C6.48312 22.3189 7.28352 21.9732 7.85083 21.3704L20.5955 7.83107L20.6768 7.9059C20.9558 8.16252 21.3894 8.1469 21.6491 7.87091L21.8119 7.69792C22.076 7.41738 22.0601 6.97512 21.7764 6.71435ZM14.2203 13.1615L9.55235 10.938L16.0642 4.02007L19.6879 7.35303L14.2203 13.1615Z" fill="white"/>
</svg>
