<svg width="24" height="24" viewBox="0 0 24 24" fill="none" xmlns="http://www.w3.org/2000/svg">
<rect width="24" height="24" fill="#CCCCCC"/>
<path d="M7.21922 9.68606L2.95468 11.1076L8.64073 19.1628L20.9605 7.79071L19.539 6.84303L7.21922 9.68606Z" fill="#E1E1E1"/>
<path d="M8.69646 14.0073L8.69571 14.0065L8.69196 14.0043L8.69646 14.0073ZM22.9565 11.6477L21.3017 7.26978L15.287 4L2.82271 10.6438L1 15.5136L8.34781 19.4229L8.46853 14.1242L2.75223 10.8605L3.24258 11.1199L2.96292 10.9587L3.96162 11.4895L3.05289 10.9587L8.69571 14.0065L20.8458 7.72639L18.9009 8.79407L21.178 7.63117L16.6711 10.0177L8.84791 14.3117L8.34706 19.4222L22.9557 11.6462L22.9565 11.6477ZM8.93939 12.4785L5.64862 10.7225L8.84941 11.7122L18.649 7.3635L8.93939 12.4785Z" fill="white"/>
</svg>
