<svg width="24" height="24" viewBox="0 0 24 24" fill="none" xmlns="http://www.w3.org/2000/svg">
<rect width="24" height="24" fill="url(#paint0_linear_2007_153)"/>
<path d="M5.27244 15.9596C5.33175 15.8979 5.40304 15.8491 5.48193 15.816C5.56082 15.783 5.64564 15.7664 5.73117 15.7673H21.6773C21.7217 15.7696 21.7652 15.7806 21.8053 15.7997C21.8454 15.8189 21.8813 15.8458 21.911 15.8789C21.9406 15.912 21.9634 15.9506 21.9781 15.9926C21.9927 16.0346 21.9988 16.079 21.9962 16.1234C21.9926 16.2044 21.9609 16.2816 21.9066 16.3418L18.7567 19.4852C18.635 19.6071 18.4702 19.6761 18.298 19.6774H2.3519C2.28239 19.6831 2.21289 19.6663 2.15366 19.6294C2.09442 19.5926 2.04858 19.5378 2.02289 19.4729C1.9972 19.4081 1.99301 19.3367 2.01095 19.2693C2.0289 19.2019 2.06801 19.142 2.12254 19.0986L5.27244 15.9596Z" fill="url(#paint1_linear_2007_153)"/>
<path d="M5.27235 4.19441C5.3937 4.07174 5.55854 4.00188 5.73108 4H21.6772C21.7413 4.0009 21.8038 4.0206 21.8568 4.05667C21.9098 4.09273 21.9511 4.14356 21.9756 4.20287C22 4.26218 22.0065 4.32735 21.9942 4.3903C21.9819 4.45325 21.9514 4.51122 21.9065 4.55702L18.7566 7.72003C18.6349 7.8419 18.4701 7.91095 18.2979 7.91226H2.35181C2.26236 7.90718 2.17857 7.86686 2.11879 7.80012C2.05901 7.73338 2.02812 7.64567 2.03289 7.5562C2.0365 7.4752 2.06816 7.39798 2.12245 7.33776L5.27235 4.19441Z" fill="url(#paint2_linear_2007_153)"/>
<path d="M18.7566 10.0399C18.6971 9.97834 18.6259 9.92942 18.547 9.89602C18.4682 9.86262 18.3835 9.84543 18.2979 9.84546H2.35181C2.26236 9.85053 2.17857 9.89086 2.11879 9.9576C2.05901 10.0243 2.02812 10.112 2.03289 10.2015C2.03614 10.2826 2.06785 10.3599 2.12245 10.42L5.27235 13.5546C5.33186 13.6161 5.40314 13.665 5.48195 13.6984C5.56076 13.7318 5.64548 13.749 5.73108 13.749H21.6772C21.7413 13.7481 21.8038 13.7284 21.8568 13.6923C21.9098 13.6562 21.9511 13.6054 21.9756 13.5461C22 13.4868 22.0065 13.4216 21.9942 13.3587C21.9819 13.2957 21.9514 13.2378 21.9065 13.192L18.7566 10.0399Z" fill="url(#paint3_linear_2007_153)"/>
<defs>
<linearGradient id="paint0_linear_2007_153" x1="12" y1="24" x2="12" y2="0" gradientUnits="userSpaceOnUse">
<stop stop-color="#170E2B"/>
<stop offset="1" stop-color="#210066"/>
</linearGradient>
<linearGradient id="paint1_linear_2007_153" x1="20.1482" y1="2.11923" x2="9.10606" y2="23.2642" gradientUnits="userSpaceOnUse">
<stop stop-color="#00FFA3"/>
<stop offset="1" stop-color="#DC1FFF"/>
</linearGradient>
<linearGradient id="paint2_linear_2007_153" x1="15.3293" y1="-0.399376" x2="4.29811" y2="20.7478" gradientUnits="userSpaceOnUse">
<stop stop-color="#00FFA3"/>
<stop offset="1" stop-color="#DC1FFF"/>
</linearGradient>
<linearGradient id="paint3_linear_2007_153" x1="17.7322" y1="0.856665" x2="6.68785" y2="22.0016" gradientUnits="userSpaceOnUse">
<stop stop-color="#00FFA3"/>
<stop offset="1" stop-color="#DC1FFF"/>
</linearGradient>
</defs>
</svg>
