<svg width="24" height="24" viewBox="0 0 24 24" fill="none" xmlns="http://www.w3.org/2000/svg">
<rect width="24" height="24" fill="#FFCF30"/>
<path d="M6.59869 3C6.59869 3.96457 6.59869 6.66512 6.59869 7.82258C6.59869 11.7771 10.0937 13.3203 12 13.3203C13.9064 13.3203 17.4013 11.7771 17.4013 7.82258C17.4013 6.66512 17.4013 3.96457 17.4013 3H6.59869ZM12.0102 4.77866L9.6118 5.82606V9.2909L9.61007 9.97807C9.59156 9.97413 7.94672 9.62228 7.94672 7.21986C7.94672 6.22868 7.94672 4.77095 7.94672 4.77095H10.0714L12.0102 4.77866Z" fill="white"/>
<path d="M14.0926 17.0994L13.2554 15.93L12.8371 14.2068L12 14.3298L11.1629 14.2068L10.7444 15.93L10.2177 16.6658L9.90741 17.0909H9.91346L9.90741 17.0994H14.0926Z" fill="white"/>
<path d="M15.9032 18.2085V18.2001H8.09692V21.0008V21.0065V21.0149H15.9032V18.2142V18.2085Z" fill="white"/>
<path d="M20.9947 6.40129C20.9935 6.35668 20.9923 6.3191 20.9923 6.28962V4.58685H18.3925V5.94979H19.6293V6.28962C19.6293 6.32927 19.6306 6.37958 19.6324 6.43943C19.646 6.93119 19.6782 8.08284 18.8743 8.90956C18.6941 9.09484 18.4795 9.25391 18.2332 9.38853C18.0966 10.009 17.8776 10.5695 17.5963 11.0709C18.5308 10.8455 19.2861 10.4411 19.8515 9.85974C21.0568 8.6203 21.0117 7.00824 20.9947 6.40129Z" fill="white"/>
<path d="M5.12564 8.90956C4.32172 8.08284 4.35388 6.93119 4.36771 6.43943C4.36937 6.37958 4.3706 6.32927 4.3706 6.28962V5.94979H5.59653H5.59899H5.60743V4.58685H3.00766V6.28962C3.00766 6.3191 3.00653 6.35668 3.00526 6.40129C2.9883 7.00824 2.94334 8.6203 4.14858 9.85977C4.71394 10.4412 5.46912 10.8455 6.40368 11.0709C6.12234 10.5695 5.90334 10.009 5.76672 9.3885C5.52046 9.25384 5.30582 9.09484 5.12564 8.90956Z" fill="white"/>
</svg>
