<svg width="24" height="24" viewBox="0 0 24 24" fill="none" xmlns="http://www.w3.org/2000/svg">
<rect width="24" height="24" rx="4" fill="#CCF92D"/>
<path d="M16.584 14.0216C16.1555 13.0406 15.8377 11.8997 15.7075 10.6511C15.7197 10.0374 15.636 9.4105 15.4583 8.79171C15.12 7.61248 14.4441 6.4591 13.4454 5.4602C12.7872 4.8022 12.0668 4.26016 11.312 3.85252C10.7456 3.54694 10.1598 3.31694 9.56612 3.17301C8.67644 2.95708 7.76624 2.93581 6.89759 3.1515C6.02918 3.36574 5.20817 3.82074 4.51527 4.51529C3.89795 5.13145 3.4695 5.84797 3.23205 6.60999C3.05346 7.18118 2.981 7.77649 3.0042 8.37327C3.03908 9.26942 3.28609 10.1686 3.70593 11.0272C4.12626 11.8858 4.71992 12.705 5.46014 13.4454C6.79191 14.7767 8.3986 15.5351 9.97421 15.6831C10.2327 15.7073 10.4902 15.7134 10.7456 15.7041C12.0656 15.7931 13.1695 16.1051 14.1003 16.535C14.6571 16.7925 15.1523 17.0933 15.5915 17.4158L17.953 16.2476C17.4507 15.6645 16.9713 14.9097 16.584 14.0216ZM11.8239 14.0972C11.0322 14.3607 10.1158 14.3714 9.18045 14.103C8.24606 13.8352 7.2969 13.2881 6.45718 12.4484C5.88933 11.8808 5.43026 11.2668 5.09314 10.6421C4.84019 10.1737 4.65607 9.69931 4.54322 9.23405C4.37419 8.53542 4.36533 7.86048 4.52002 7.23691C4.67565 6.61309 4.99101 6.03497 5.51224 5.51233C5.97655 5.04872 6.48559 4.74891 7.03073 4.57794C7.43956 4.45004 7.87041 4.39601 8.31872 4.4132C8.99057 4.43879 9.70214 4.6272 10.4074 4.97243C11.1123 5.31721 11.8095 5.81837 12.4484 6.4572C13.5685 7.57687 14.1663 8.89071 14.2793 10.1055C14.3362 10.7133 14.2729 11.2957 14.0973 11.8239C13.9211 12.3523 13.6347 12.8276 13.2314 13.2312C12.8273 13.6346 12.3523 13.9212 11.8239 14.0972ZM14.692 15.2554C14.3176 15.0821 13.9288 14.9362 13.5198 14.8152C13.7706 14.6438 14.0082 14.4487 14.2282 14.2282C14.4737 13.9831 14.6872 13.7156 14.872 13.4325C14.9897 13.8289 15.1286 14.2122 15.2917 14.5859C15.5147 15.0959 15.7648 15.571 16.0359 16.0071C15.6269 15.7355 15.18 15.4811 14.692 15.2554Z" fill="white"/>
<path d="M18.4274 16.7469L16.1588 17.869C16.2884 17.9816 16.4123 18.0952 16.5302 18.2097C16.566 18.2446 16.6019 18.28 16.6377 18.3159C16.6937 18.3718 16.7499 18.4292 16.8056 18.4873L19.0951 17.3549C18.8702 17.1615 18.6421 16.9557 18.4274 16.7469Z" fill="white"/>
<path d="M20.8769 18.8799L18.232 20.1882C18.2719 20.2413 18.3083 20.2903 18.3399 20.3329C18.3891 20.3996 18.4274 20.4524 18.4532 20.488C18.4661 20.506 18.4756 20.5196 18.4819 20.5285L18.4888 20.538L18.4902 20.5402L18.4905 20.5405L18.4931 20.544L18.4957 20.5476C18.5299 20.5949 18.5677 20.6392 18.6083 20.6798C18.7905 20.862 19.0327 20.9754 19.2933 20.9966L19.2959 20.9969C19.6137 21.0215 19.9276 20.9065 20.1547 20.6798L20.6798 20.1548C20.9065 19.9281 21.0217 19.6137 20.9966 19.2952V19.2947C20.9849 19.1479 20.9431 19.0076 20.8769 18.8799Z" fill="white"/>
<path d="M19.7691 17.9092C19.7304 17.8788 19.6902 17.8465 19.65 17.8145L17.2665 18.9934C17.4666 19.2228 17.6548 19.4501 17.8205 19.6576L20.3939 18.3847C20.2571 18.2846 20.0345 18.1186 19.7691 17.9092Z" fill="white"/>
<path d="M9.53403 18.1784C8.93651 18.7434 8.90975 19.6861 9.47447 20.2838C10.0394 20.8818 10.9822 20.9084 11.5799 20.3434C12.1779 19.7784 12.2045 18.8359 11.6395 18.2379C11.0747 17.6402 10.132 17.6137 9.53403 18.1784Z" fill="white"/>
</svg>
