<svg width="24" height="24" viewBox="0 0 24 24" fill="none" xmlns="http://www.w3.org/2000/svg">
<rect width="24" height="24" rx="4" fill="#CCF92D"/>
<path d="M17.0933 14.2463C16.6172 13.1563 16.2642 11.8885 16.1194 10.5013C16.1329 9.81935 16.04 9.12278 15.8426 8.43523C15.4667 7.12498 14.7157 5.84345 13.606 4.73355C12.8747 4.00245 12.0742 3.40018 11.2355 2.94724C10.6062 2.60771 9.9553 2.35216 9.29568 2.19224C8.30716 1.95231 7.29582 1.92868 6.33065 2.16833C5.36576 2.40638 4.45352 2.91193 3.68363 3.68366C2.99773 4.36827 2.52167 5.16442 2.25784 6.0111C2.0594 6.64576 1.97889 7.30721 2.00467 7.9703C2.04342 8.96602 2.31788 9.96513 2.78437 10.9191C3.2514 11.8731 3.91102 12.7833 4.73349 13.606C6.21323 15.0852 7.99844 15.9279 9.74913 16.0923C10.0363 16.1192 10.3224 16.1261 10.6062 16.1157C12.0729 16.2145 13.2994 16.5612 14.3336 17.0389C14.9523 17.325 15.5025 17.6592 15.9905 18.0176L18.6145 16.7195C18.0563 16.0716 17.5237 15.233 17.0933 14.2463ZM11.8043 14.3303C10.9247 14.623 9.90643 14.6349 8.86716 14.3366C7.82895 14.0391 6.77433 13.4313 5.84131 12.4982C5.21037 11.8676 4.70028 11.1854 4.32571 10.4912C4.04465 9.97075 3.84008 9.44368 3.71469 8.92672C3.52687 8.15046 3.51703 7.40053 3.68891 6.70767C3.86184 6.01454 4.21223 5.37219 4.79138 4.79148C5.30728 4.27636 5.87288 3.94323 6.47858 3.75327C6.93285 3.61116 7.41156 3.55112 7.90969 3.57022C8.65619 3.59866 9.44682 3.80799 10.2305 4.19159C11.0137 4.57468 11.7883 5.13152 12.4982 5.84134C13.7428 7.08541 14.407 8.54523 14.5326 9.89505C14.5958 10.5704 14.5254 11.2175 14.3304 11.8043C14.1346 12.3914 13.8164 12.9196 13.3682 13.368C12.9193 13.8162 12.3914 14.1347 11.8043 14.3303ZM14.9911 15.6171C14.5751 15.4245 14.1432 15.2625 13.6886 15.128C13.9673 14.9375 14.2314 14.7208 14.4757 14.4758C14.7486 14.2035 14.9858 13.9062 15.1911 13.5917C15.3218 14.0321 15.4762 14.458 15.6574 14.8732C15.9052 15.4399 16.1831 15.9677 16.4844 16.4523C16.0299 16.1505 15.5334 15.8678 14.9911 15.6171Z" fill="white"/>
<path d="M19.1415 17.2743L16.6209 18.5211C16.7649 18.6462 16.9025 18.7724 17.0335 18.8997C17.0734 18.9384 17.1132 18.9778 17.1531 19.0176C17.2152 19.0798 17.2777 19.1435 17.3395 19.2081L19.8835 17.9499C19.6335 17.735 19.3801 17.5063 19.1415 17.2743Z" fill="white"/>
<path d="M21.8632 19.6443L18.9244 21.098C18.9688 21.157 19.0092 21.2115 19.0443 21.2587C19.099 21.3329 19.1415 21.3915 19.1702 21.4311C19.1846 21.4511 19.1951 21.4662 19.2021 21.4761L19.2098 21.4867L19.2114 21.4891L19.2116 21.4894L19.2145 21.4934L19.2174 21.4974C19.2554 21.5499 19.2974 21.5991 19.3426 21.6443C19.545 21.8467 19.8141 21.9726 20.1037 21.9963L20.1066 21.9965C20.4597 22.0238 20.8085 21.8961 21.0608 21.6442L21.6442 21.0609C21.8961 20.809 22.0241 20.4597 21.9962 20.1058V20.1053C21.9833 19.9421 21.9368 19.7862 21.8632 19.6443Z" fill="white"/>
<path d="M20.6323 18.5657C20.5893 18.532 20.5447 18.4962 20.5 18.4605L17.8517 19.7705C18.074 20.0253 18.2831 20.2779 18.4672 20.5085L21.3265 19.0941C21.1746 18.9828 20.9272 18.7985 20.6323 18.5657Z" fill="white"/>
<path d="M9.26003 18.8649C8.59611 19.4926 8.56639 20.5401 9.19385 21.2043C9.82159 21.8687 10.8691 21.8982 11.5333 21.2704C12.1977 20.6427 12.2272 19.5955 11.5994 18.931C10.9719 18.2669 9.92441 18.2374 9.26003 18.8649Z" fill="white"/>
</svg>
