<svg width="24" height="24" viewBox="0 0 24 24" fill="none" xmlns="http://www.w3.org/2000/svg">
<rect width="24" height="24" fill="#4183C0"/>
<path fill-rule="evenodd" clip-rule="evenodd" d="M8.19578 3C8.54013 3 8.81928 3.27915 8.81928 3.62349V4.03916C8.81928 4.3835 8.54013 4.66265 8.19578 4.66265C7.85144 4.66265 7.57229 4.3835 7.57229 4.03916V3.62349C7.57229 3.27915 7.85144 3 8.19578 3ZM4.52204 4.52182C4.76553 4.27832 5.1603 4.27832 5.40379 4.52182L5.58341 4.70143C5.8269 4.94492 5.8269 5.33969 5.58341 5.58319C5.33991 5.82667 4.94514 5.82667 4.70166 5.58319L4.52204 5.40357C4.27855 5.16007 4.27855 4.7653 4.52204 4.52182ZM11.8694 4.52193C12.1129 4.76542 12.1129 5.1602 11.8694 5.40369L11.6898 5.5833C11.4463 5.82679 11.0516 5.82679 10.8081 5.5833C10.5646 5.33981 10.5646 4.94504 10.8081 4.70155L10.9876 4.52193C11.2311 4.27845 11.6259 4.27845 11.8694 4.52193ZM3 8.19578C3 7.85144 3.27915 7.57229 3.62349 7.57229H4.03916C4.3835 7.57229 4.66265 7.85144 4.66265 8.19578C4.66265 8.54013 4.3835 8.81928 4.03916 8.81928H3.62349C3.27915 8.81928 3 8.54013 3 8.19578ZM5.58341 10.8084C5.8269 11.0519 5.8269 11.4467 5.58341 11.6902L5.40379 11.8697C5.1603 12.1132 4.76553 12.1132 4.52204 11.8697C4.27855 11.6262 4.27855 11.2315 4.52204 10.988L4.70166 10.8084C4.94514 10.5649 5.33991 10.5649 5.58341 10.8084Z" fill="white"/>
<path d="M15.4995 20.25C18.1231 20.25 20.25 18.1482 20.25 15.5554C20.25 13.5005 18.914 11.754 17.0536 11.1179C16.7893 8.77248 14.7765 6.94879 12.3326 6.94879C9.70901 6.94879 7.58216 9.05061 7.58216 11.6434C7.58216 12.2168 7.68621 12.7662 7.87667 13.2743C7.65332 13.2309 7.42249 13.2082 7.18629 13.2082C5.2186 13.2082 3.62347 14.7845 3.62347 16.7291C3.62347 18.6736 5.2186 20.25 7.18629 20.25H15.4995Z" fill="white"/>
<path d="M10.1168 6.12098C9.67762 5.85494 9.16242 5.7018 8.61145 5.7018C7.0045 5.7018 5.70181 7.00448 5.70181 8.61144C5.70181 9.3537 5.97975 10.031 6.43724 10.5451C6.81881 8.51897 8.23676 6.86221 10.1168 6.12098Z" fill="white"/>
</svg>
